<svg width="140" id="Layer_1" xmlns="http://www.w3.org/2000/svg" viewBox="0 0 1326 411.06"><g><path d="M412.0148,303.0984V218.4518H393.619V213.049H436.2v5.4028H417.9323v84.6466Z" transform="translate(11.9999 -44.47)" style="fill:#2d2d2b"></path><path d="M468.5132,268.4935,448.3164,213.049h6.1747l17.238,47.34,17.2381-47.34h5.789l-20.3255,55.4445v34.6049h-5.9175Z" transform="translate(11.9999 -44.47)" style="fill:#2d2d2b"></path><path d="M508.0313,303.0984V213.049h5.9175v84.6463H542.25v5.4031Z" transform="translate(11.9999 -44.47)" style="fill:#2d2d2b"></path><path d="M586.1294,254.7288v5.4031H561.5585v37.5634h29.5877v5.4031H555.641V213.049h35.5052v5.4028H561.5585v36.277Z" transform="translate(11.9999 -44.47)" style="fill:#2d2d2b"></path><path d="M623.667,213.049c13.7647,0,19.2962,7.59,19.2962,20.3252v7.8472c0,10.5487-4.1162,16.5949-12.9927,18.6533,9.2621,2.0582,12.9927,8.6188,12.9927,18.3956v14.0222c0,3.7306.2575,7.8471,2.1872,10.8059h-6.175c-1.5437-2.7016-1.93-5.9175-1.93-10.8059V278.1419c0-11.9637-6.5607-15.3084-16.8522-15.3084h-9.3909v40.2649h-5.9175V213.049ZM620.3224,257.43c10.5487,0,16.7234-2.9588,16.7234-15.0512v-8.49c0-9.6481-3.7307-15.4371-13.5075-15.4371H610.8027V257.43Z" transform="translate(11.9999 -44.47)" style="fill:#2d2d2b"></path><path d="M688.8228,276.9841l9.6481-63.9351h19.6824v90.0494H704.7746V238.52l-9.7769,64.5783h-13.379L671.07,239.42v63.678h-12.35V213.049h19.6822Z" transform="translate(11.9999 -44.47)" style="fill:#2d2d2b"></path><path d="M773.5837,269.5228v11.9637c0,14.4078-7.204,22.6409-21.0974,22.6409s-21.0975-8.2331-21.0975-22.6409V234.6608c0-14.4081,7.2041-22.6412,21.0975-22.6412s21.0974,8.2331,21.0974,22.6412v8.7477h-13.379V233.76c0-6.4322-2.83-8.8763-7.3325-8.8763S745.54,227.328,745.54,233.76v48.6267c0,6.4321,2.83,8.7477,7.3325,8.7477s7.3325-2.3156,7.3325-8.7477V269.5228Z" transform="translate(11.9999 -44.47)" style="fill:#2d2d2b"></path><path d="M808.11,252.9279h19.8108v28.5586c0,14.4078-7.204,22.6409-21.0974,22.6409s-21.0974-8.2331-21.0974-22.6409V234.6608c0-14.4081,7.204-22.6412,21.0974-22.6412s21.0974,8.2331,21.0974,22.6412v8.7477h-13.379V233.76c0-6.4322-2.83-8.8763-7.3325-8.8763s-7.3324,2.4441-7.3324,8.8763v48.6267c0,6.4321,2.83,8.7477,7.3324,8.7477s7.3325-2.3156,7.3325-8.7477V265.7922H808.11Z" transform="translate(11.9999 -44.47)" style="fill:#2d2d2b"></path><path d="M841.0164,213.049H855.167v90.0494H841.0164Z" transform="translate(11.9999 -44.47)" style="fill:#2d2d2b"></path><path d="M881.5889,237.8767v65.2217H868.8533V213.049h17.7525l14.5365,53.901V213.049h12.6071v90.0494H899.2126Z" transform="translate(11.9999 -44.47)" style="fill:#2d2d2b"></path><path d="M940.2355,237.8767v65.2217H927.5V213.049h17.7524l14.5365,53.901V213.049h12.6072v90.0494H957.8593Z" transform="translate(11.9999 -44.47)" style="fill:#2d2d2b"></path><path d="M986.159,213.049H1000.31v90.0494H986.159Z" transform="translate(11.9999 -44.47)" style="fill:#2d2d2b"></path><path d="M1033.8839,212.02c13.765,0,20.84,8.2331,20.84,22.6412v2.83h-13.379V233.76c0-6.4322-2.5728-8.8763-7.0753-8.8763s-7.0753,2.4441-7.0753,8.8763c0,18.5246,27.658,21.9977,27.658,47.7263,0,14.4078-7.2037,22.6409-21.0971,22.6409s-21.0974-8.2331-21.0974-22.6409V275.955h13.3787v6.4319c0,6.4321,2.83,8.7477,7.3328,8.7477s7.3324-2.3156,7.3324-8.7477c0-18.5244-27.658-21.9978-27.658-47.7261C1013.044,220.2527,1020.1193,212.02,1033.8839,212.02Z" transform="translate(11.9999 -44.47)" style="fill:#2d2d2b"></path><path d="M1080.6446,289.4622v13.6362h-13.6362V289.4622Z" transform="translate(11.9999 -44.47)" style="fill:#2d2d2b"></path><path d="M1132.383,235.0467v7.4612h-5.66v-7.8471c0-9.6481-3.7306-16.9809-13.6362-16.9809s-13.6362,7.3328-13.6362,16.9809v46.8257c0,9.6481,3.7309,16.8522,13.6362,16.8522s13.6362-7.2041,13.6362-16.8522V270.8091h5.66v10.2915c0,12.9928-5.66,22.77-19.4249,22.77s-19.4249-9.7768-19.4249-22.77V235.0467c0-12.9928,5.66-22.77,19.4249-22.77S1132.383,222.0539,1132.383,235.0467Z" transform="translate(11.9999 -44.47)" style="fill:#2d2d2b"></path><path d="M1145.9541,235.0467c0-13.1215,6.0463-22.77,19.6825-22.77,13.8933,0,19.9393,9.6481,19.9393,22.77v46.0539c0,13.1215-6.046,22.77-19.9393,22.77-13.6362,0-19.6825-9.6481-19.6825-22.77Zm5.9175,46.44c0,9.7769,3.8594,16.9806,13.765,16.9806,10.034,0,14.0218-7.2037,14.0218-16.9806V234.6608c0-9.7769-3.9878-16.9809-14.0218-16.9809-9.9056,0-13.765,7.204-13.765,16.9809Z" transform="translate(11.9999 -44.47)" style="fill:#2d2d2b"></path><path d="M1229.88,302.97h-5.9175l-19.039-79.6294v79.7582h-5.2743V213.049h8.4906l18.91,79.6294,18.7818-79.6294h8.49v90.0494h-5.66V223.083Z" transform="translate(11.9999 -44.47)" style="fill:#2d2d2b"></path></g><rect width="1326" height="411.06" style="fill:none"></rect><g><path d="M189.93,269.5c-9.11-.33-16.23,5.52-15.1.17.5-2.36,3.41-3.51,8.9-3.51a45.8033,45.8033,0,0,1,5.62.37l.58.08.58-.08a45.5933,45.5933,0,0,1,5.62-.37c5.49,0,8.4,1.15,8.9,3.51C206.15,275,199.08,269.17,189.93,269.5Z" transform="translate(11.9999 -44.47)" style="fill:#e6ae81"></path><path d="M307.67,138.62c-7.43-9.46-12.29-27.06-20.44-37.43s-30.41-20.27-38.08-30.03c-7.66-9.75-17.91-11.37-28.45-4.46-10.53,6.9-52.17,14.55-73.5,26.44-11.76,6.56-54.5,14.22-61.76,23.61-8.35,10.79-17.77,23.73-24.91,37.52a110.6428,110.6428,0,0,0-4.96,10.61c-6.02,5.24-32.14,29.85-31.65,62.41.22,14.98,5.1,30.49,14.65,45.33,2.54,10.94,8.17,29.71,19.51,47.42,9.72,15.18,13.33,38.42,29.21,48.06,7.05,4.27,25.85,14.54,44.56,24.64.09.66.17,1.32.27,1.98a76.7044,76.7044,0,0,0,2.86,12.25q.975,3,2.23,5.89a43.9216,43.9216,0,0,0,2.97,5.67l2.86-1.54c-.31-.85-.64-1.82-.94-2.75-.3-.94-.6-1.88-.87-2.84-.56-1.9-1.03-3.83-1.49-5.76-.43-1.93-.85-3.87-1.17-5.82-.23-1.26-.43-2.53-.61-3.8,18.74,10.08,36.08,19.3,39.89,21.32l.39.42.12-.14c.17.09.27.14.27.14s14.84-7.87,32.74-17.47a95.77,95.77,0,0,1-.79,11.6c-.22,1.97-.54,3.93-.89,5.87-.33,1.96-.75,3.89-1.18,5.83-.45,1.93-.93,3.85-1.49,5.76-.26.95-.56,1.89-.86,2.84-.3.93-.63,1.9-.95,2.75l2.86,1.53a41.4567,41.4567,0,0,0,2.97-5.66c.85-1.93,1.59-3.9,2.24-5.89a77.2123,77.2123,0,0,0,2.86-12.25,103.5617,103.5617,0,0,0,1.1-15.54c21.14-11.36,44.65-24.13,52.73-29.03,15.88-9.64,19.49-32.88,29.21-48.06,16.75-26.14,18.98-48.38,19.12-50.05v-.03a.17.17,0,0,0,.01-.07v-.03c.06-.44.11-.88.17-1.31.01-.14.03-.27.04-.4.03-.22.06-.44.08-.65.02-.22.04-.44.07-.65.01-.13.03-.27.04-.4.04-.41.08-.81.12-1.21,0-.1.01-.2.02-.31q.06-.555.09-1.11c.01-.12.02-.24.03-.37.03-.39.06-.77.08-1.15.01-.13.02-.26.02-.39.03-.37.05-.74.07-1.11a2.715,2.715,0,0,1,.01-.28c.01-.31.03-.61.04-.92,0-.11.01-.22.01-.33.01-.34.02-.68.03-1,.01-.12.01-.24.01-.35.01-.32.01-.64.02-.95v-.28c0-.25.01-.49.01-.73v-.91q0-1.365-.06-2.7c.79-3.79,2.79-13.44,3.6-17.52a2.3254,2.3254,0,0,0,.05-.28C333.57,176.63,314.56,147.39,307.67,138.62ZM189.93,305.67a24.2324,24.2324,0,0,1-6.17-1.31,22.6719,22.6719,0,0,1-3.34-1.49c-7.66-4.2-12.99-12.99-11.83-26.24,1.61-18.29,21.34-11.47,21.34-11.47s11.03-3.81,17.27,1.91c0,.01.01.01.02.02,2.09,1.93,3.64,4.94,4.04,9.54,1.19,13.51-4.37,22.37-12.27,26.47a22.17,22.17,0,0,1-3.33,1.41A24.5948,24.5948,0,0,1,189.93,305.67Z" transform="translate(11.9999 -44.47)" style="fill:#e6ae81"></path><g><path d="M125.6883,160.9145c-.0718.0092-.1434.0194-.2152.0286.1452.0812.2253.1284.2253.1284C125.6984,161.0172,125.69,160.9681,125.6883,160.9145Z" transform="translate(11.9999 -44.47)" style="fill:none"></path><path d="M178.5755,417.3691c.0366.2538.0549.3893.0549.3893s.0263-.1939.0774-.5437Z" transform="translate(11.9999 -44.47)" style="fill:none"></path><path d="M201.47,343.3659s-2.0745-.0283-4.4779-3.2914l-4.0865,5.1675a19.54,19.54,0,0,1-2.9506-6.9307c-.0634,2.5073-1.6186,6.8061-3.1522,7.8906a24.7687,24.7687,0,0,1-4.7323-7.8276,14.2013,14.2013,0,0,1-2.9677,6.3529l-5.5344-9.5023c-1.0842,6-1.07,6.099-1.07,6.099-3.8-4.1579-4.7605-5.7792-4.8614-6.4a4.5662,4.5662,0,0,0-1.4868,4.499,18.82,18.82,0,0,1-6.5382-9.95c-3.06,2.4538-3.2872,3.0085-3.27,3.1288a38.065,38.065,0,0,1-1.945-3.6507,27.2591,27.2591,0,0,1-8.5574,4.5963,5.4588,5.4588,0,0,1,.985,1.89l.6217,7.4765-.0051-.0015a61.1218,61.1218,0,0,1,11.8724,14.8763c4.0124,2.8774,5.2048,8.86,5.2048,8.86,3.2773-11.8891-7.3478-16.2053-7.3478-16.2053,15.8279,1.6282,17.87,14.913,17.87,14.913s-1.2509-11.8891,6.1746-13.6983a10.3373,10.3373,0,0,0-1.8506,11.6306s4.8288-8.4273,19.6309-7.2256a67.3266,67.3266,0,0,1,6.266-8.5536H205.26c1.4249-2.8344-.7832-7.1763,3.2225-9.4591a17.06,17.06,0,0,0-2.4709-3.124Z" transform="translate(11.9999 -44.47)" style="fill:#c37a47"></path><path d="M213.9206,333.2883s.2481.6731-1.3539,3.526c.336-.0486.6851-.0927,1.0559-.13.5793-.0573,1.1725-.1194,1.7716-.1838A3.6513,3.6513,0,0,0,213.9206,333.2883Z" transform="translate(11.9999 -44.47)" style="fill:#c37a47"></path><path d="M225.3518,328.8649a37.922,37.922,0,0,1-1.9847,3.7372c.0171-.12-.21-.675-3.27-3.1288a11.2262,11.2262,0,0,1-2.99,6.8364c4.8124-.5564,10.1765-1.344,15.8166-2.4567l-.705-.9619A27.12,27.12,0,0,1,225.3518,328.8649Z" transform="translate(11.9999 -44.47)" style="fill:#c37a47"></path><path d="M140.99,326.9491a19.5446,19.5446,0,0,1-.8336,3.4191c1.201.5029,2.2242.9411,3.0417,1.3137C143.2207,330.0173,142.8235,327.9874,140.99,326.9491Z" transform="translate(11.9999 -44.47)" style="fill:#c37a47"></path><path d="M195.9564,361.3263A5.1638,5.1638,0,0,0,194.9,363.35Q195.418,362.3294,195.9564,361.3263Z" transform="translate(11.9999 -44.47)" style="fill:#c37a47"></path><path d="M178.2382,417.7629l.1252-.1462-.5133-.2724Z" transform="translate(11.9999 -44.47)" style="fill:#e6ae81"></path><path d="M179.3644,363.2888a10.3373,10.3373,0,0,1,1.8506-11.6306c-7.4255,1.8092-6.1746,13.6983-6.1746,13.6983s-2.0418-13.2848-17.87-14.913c0,0,10.6251,4.3162,7.3478,16.2053,0,0-1.1924-5.9826-5.2048-8.86,13.6773,23.0935,18.6992,55.6819,19.2618,59.58l.1323-.1544c.607-4.1511,4.9483-31.7037,16.1924-53.8649a5.1638,5.1638,0,0,1,1.0562-2.0235c.9649-1.8026,1.9764-3.5627,3.0389-5.2631C184.1932,354.8615,179.3644,363.2888,179.3644,363.2888Z" transform="translate(11.9999 -44.47)" style="fill:#e6ae81"></path><path d="M318.0885,271.4474c-.0193.1315-.0382.2622-.0582.3943q-.1065.7052-.2249,1.4237c-.0231.14-.047.2808-.0707.4216-.0831.4931-.169.989-.2608,1.49-.0161.088-.0336.1771-.05.2654q-.1266.6819-.2648,1.3735c-.026.13-.0512.26-.0778.3909q-.1535.7551-.3213,1.5209-.048.2192-.0973.4392-.174.78-.3615,1.5679c-.0252.1055-.0521.2118-.0778.3176q-.173.7119-.3587,1.4308c-.0323.1249-.0635.2491-.0963.3742q-.209.7964-.4351,1.6009-.0622.2226-.1261.4457-.2312.8109-.4783,1.6279c-.0353.1164-.0724.2332-.1083.35q-.2291.744-.473,1.4927c-.0369.1134-.0726.2264-.11.34q-.2724.8259-.5651,1.6568-.0788.225-.1588.45-.2961.8313-.6105,1.6657c-.0468.1236-.0952.2474-.1426.3711q-.2972.7763-.6112,1.5544c-.0384.0949-.0752.19-.114.2845-.2308.5658-.4708,1.1323-.7158,1.6991-.0635.1467-.1268.2934-.1912.44q-.3682.8391-.757,1.6785c-.0611.1316-.1239.2631-.1858.3947q-.3773.8023-.7735,1.6041c-.0354.0714-.0694.1429-.105.2143-.2863.5734-.5832,1.1461-.8855,1.7184-.0745.141-.1486.282-.2241.423q-.4488.8383-.921,1.6739c-.076.1342-.1536.2682-.23.4023q-.4746.8283-.9711,1.6532-.0584.0966-.1169.193c-.3361.5524-.6827,1.1027-1.0353,1.6518-.0855.1331-.17.2663-.2567.3991q-.537.8254-1.1,1.6449c-.0927.1351-.1871.27-.2809.4045-.3906.5612-.7873,1.1209-1.1966,1.6772-.0456.062-.0932.1235-.139.1854q-.5772.78-1.1811,1.5515c-.0962.1232-.1911.2468-.2882.37q-.633.8014-1.2948,1.5937c-.1109.133-.2232.2655-.3353.3981-.454.5367-.9149,1.0711-1.3887,1.6008-.07.0787-.1432.1565-.214.235q-.6594.7311-1.3454,1.452c-.1056.1112-.21.2229-.3162.3337q-.7374.7668-1.5066,1.521-.1947.1914-.3918.3819c-.5221.5058-1.0521,1.0084-1.5952,1.5053-.0967.0884-.1961.1756-.2935.2638q-.7548.6834-1.537,1.3544c-.1106.0948-.2191.1906-.3305.285q-.8508.7217-1.7363,1.4269-.2262.1808-.4542.36-.8916.702-1.8144,1.3887c-.1247.0924-.2523.1833-.3779.2752q-.8631.6318-1.7548,1.2487c-.1118.0773-.2212.1558-.3338.2328-.6489.4436-1.3125.88-1.9847,1.3107q-.2574.1651-.5165.3292-1.0071.6352-2.0475,1.2522c-.1555.0919-.314.182-.4707.2733q-.9871.5748-2.0046,1.1323c-.1065.0582-.21.1178-.3174.1757-.7366.3985-1.49.7874-2.2512,1.1711-.1936.0975-.3868.1952-.582.2918q-1.1289.5584-2.2938,1.0953c-.1879.0865-.3787.1711-.568.2566q-1.1305.5107-2.2934,1.0013c-.1069.0448-.2119.0908-.3192.1353-.8169.3393-1.6509.6679-2.4936.9908-.2167.083-.4326.1666-.6511.2486q-1.2564.4711-2.551.9175c-.2239.0771-.4506.1525-.6764.2285-.87.2929-1.7486.58-2.6443.8554-.1318.0406-.2654.08-.3978.12q-1.2955.393-2.63.7593c-.1494.0413-.2923.087-.4424.1277a63.8385,63.8385,0,0,1-7.3812,1.7449c-12.04,2.4574-26.0874,3.4755-42.4818,2.5587a67.3266,67.3266,0,0,0-6.266,8.5536c-1.0625,1.7-2.074,3.4605-3.0389,5.2631Q195.419,362.33,194.9,363.35c-11.2441,22.1612-15.5854,49.7138-16.1924,53.8649-.0511.35-.0774.5437-.0774.5437s14.8383-7.8718,32.7378-17.4728a100.3376,100.3376,0,0,0-.6313-12.1021c-.1224-.9832-.2073-1.97-.3592-2.95l-.4332-3.0341a30.5241,30.5241,0,0,1-.21-6.7845,22.4191,22.4191,0,0,1,1.7054-6.827,20.8527,20.8527,0,0,1,3.8868-5.9729,27.6146,27.6146,0,0,1,11.5993-7.0285c1.05-.3414,2.1138-.6149,3.1774-.8574a32.1462,32.1462,0,0,1,3.2224-.4942c.2879-.03.5766-.0435.865-.0641a5.3581,5.3581,0,0,1,4.9994-3.7271,5.6983,5.6983,0,0,1,0,11.3729,5.2547,5.2547,0,0,1-4.4934-2.6347c-.1537.04-.31.08-.4628.1207-.9265.2644-1.8526.4988-2.7545.8013-.9113.2644-1.8037.5723-2.6809.8969a21.7676,21.7676,0,0,0-8.9868,5.7278,14.8954,14.8954,0,0,0-2.706,4.26,17.3821,17.3821,0,0,0-1.2048,5.0055,24.4026,24.4026,0,0,0,.0991,5.42l.4034,3.0256c.1516,1.037.2357,2.0833.3562,3.1244q.4582,4.77.4781,9.57c21.1413-11.3637,44.6472-24.1352,52.73-29.0378,15.8847-9.6344,19.49-32.8724,29.2158-48.0581,17.4015-27.1694,19.1221-50.1317,19.1231-50.1449-.0109.0824-.0226.1657-.0338.2485Q318.1862,270.7877,318.0885,271.4474Z" transform="translate(11.9999 -44.47)" style="fill:#d4271b"></path><path d="M159.3137,357.7888a61.1218,61.1218,0,0,0-11.8724-14.8763q-10.47-2.9309-20.0394-6.4046a17.5725,17.5725,0,0,0-.3271,2.691c-.9556-1.321-1.75-2.5517-2.4161-3.6972a233.9189,233.9189,0,0,1-31.0649-14.1668,14.4947,14.4947,0,0,1-2.3453,4.98,14.4628,14.4628,0,0,0-2.1164-7.52l-.046-.0268c-.0258,4.61-4.6821,10.7469-4.6821,10.7469.5348-6.5236-2.3527-7.0049-2.3527-7.0049a24.9166,24.9166,0,0,1-1.9251,9.7854s-.5213-6.0958-1.965-7.0583c-1.8448,1.2833-2.0052,6.4167-2.0052,6.4167l-2.5972-6.0092c-1.3347,2.482-1.1325,4.2821-1.1325,8.0946-3.2618-4.5986-4.4418-12.3127-4.4418-12.3127a13.4831,13.4831,0,0,0-2.4027,4.8886c-2.9944-13.4664-3.0114-16.0062-3.0114-16.0062-1.1385,1.4658-1.5337,6.8539-1.5337,6.8539-2.1393-7.4318-2.11-18.5542-2.0873-20.512-.0243-.0226-.0478-.0454-.0721-.068a32.7111,32.7111,0,0,0-1.744,9.0835,94.7782,94.7782,0,0,1-2.1286-12.82q-.7233-.7249-1.428-1.4545c-.0088,2.3715.0274,4.1146.0274,4.1146a39.4987,39.4987,0,0,1-2.3269-6.5464,120.0526,120.0526,0,0,1-12.7083-16.3416c2.5444,10.9408,8.169,29.7165,19.5077,47.42,9.7262,15.1857,13.3311,38.4237,29.2157,48.0581,7.0519,4.2771,25.8437,14.5442,44.5621,24.64a104.2377,104.2377,0,0,1-.3571-23.1186c.12-1.0411.2045-2.0874.3561-3.1245l.4034-3.0255a24.3906,24.3906,0,0,0,.0991-5.42,17.3781,17.3781,0,0,0-1.2048-5.0055,14.8932,14.8932,0,0,0-2.706-4.26,21.7682,21.7682,0,0,0-8.9868-5.7279c-.8771-.3245-1.77-.6325-2.6809-.8968-.9018-.3025-1.828-.5369-2.7545-.8013-.0481-.013-.0979-.0253-.1462-.0382A5.2481,5.2481,0,0,1,109.43,343.87a5.6983,5.6983,0,0,1,0-11.3729,5.3606,5.3606,0,0,1,5.0089,3.7548c.1639.0141.3283.0191.492.0364a32.1443,32.1443,0,0,1,3.2223.4942c1.0636.2425,2.1273.516,3.1774.8574a27.614,27.614,0,0,1,11.5993,7.0285,20.8516,20.8516,0,0,1,3.8869,5.9729,22.419,22.419,0,0,1,1.7053,6.8269,30.5177,30.5177,0,0,1-.21,6.7845l-.4332,3.0342c-.1519.98-.2368,1.967-.3592,2.95a98.8183,98.8183,0,0,0,.1546,23.709c.08.6943.1824,1.3854.282,2.0769,18.7391,10.0806,36.0842,19.2986,39.8931,21.3212l.5133.2724.267.1417s-.0183-.1355-.0549-.3893C178.0129,413.4707,172.991,380.8823,159.3137,357.7888Z" transform="translate(11.9999 -44.47)" style="fill:#d4271b"></path><path d="M108.4027,336.4207a21.7333,21.7333,0,0,1,3.29-.2818c.9163-.0054,1.8325.0345,2.7468.1131a5.3606,5.3606,0,0,0-5.0089-3.7548,5.6983,5.6983,0,0,0,0,11.3729,5.2481,5.2481,0,0,0,4.4464-2.5522c-1.8-.48-3.699-.9282-5.4805-1.3714Z" transform="translate(11.9999 -44.47)" style="fill:#2d2d2b"></path><path d="M239.8546,354.367l.0065,3.5258c-1.6779.4175-3.4584.84-5.1639,1.2889a5.2547,5.2547,0,0,0,4.4934,2.6347,5.6983,5.6983,0,0,0,0-11.3729,5.3581,5.3581,0,0,0-4.9994,3.7271c.79-.0565,1.582-.09,2.3737-.0854A21.7333,21.7333,0,0,1,239.8546,354.367Z" transform="translate(11.9999 -44.47)" style="fill:#2d2d2b"></path><path d="M216.4039,384.4393l-.4034-3.0256a24.4026,24.4026,0,0,1-.0991-5.42,17.3821,17.3821,0,0,1,1.2048-5.0055,14.8954,14.8954,0,0,1,2.706-4.26,21.7676,21.7676,0,0,1,8.9868-5.7278c.8772-.3246,1.77-.6325,2.6809-.8969.9019-.3025,1.828-.5369,2.7545-.8013.1524-.041.3091-.08.4628-.1207,1.7055-.4487,3.486-.8714,5.1639-1.2889l-.0065-3.5258a21.7333,21.7333,0,0,0-3.29-.2818c-.7917-.0046-1.5832.0289-2.3737.0854-.2884.0206-.5771.0337-.865.0641a32.1462,32.1462,0,0,0-3.2224.4942c-1.0636.2425-2.1273.516-3.1774.8574a27.6146,27.6146,0,0,0-11.5993,7.0285,20.8527,20.8527,0,0,0-3.8868,5.9729,22.4191,22.4191,0,0,0-1.7054,6.827,30.5241,30.5241,0,0,0,.21,6.7845l.4332,3.0341c.1519.98.2368,1.967.3592,2.95a100.3376,100.3376,0,0,1,.6313,12.1021,97.0876,97.0876,0,0,1-.7859,11.6069c-.2269,1.9675-.5415,3.923-.8915,5.8717-.326,1.9543-.7461,3.89-1.1769,5.825-.453,1.9283-.931,3.8555-1.4913,5.7559-.2647.9562-.5648,1.8992-.8632,2.8424-.3.9277-.6312,1.9035-.9454,2.75l2.8586,1.5355a41.9871,41.9871,0,0,0,2.97-5.6623q1.2647-2.8933,2.2328-5.8944a76.6218,76.6218,0,0,0,2.8665-12.25,103.4706,103.4706,0,0,0,1.0963-15.532q-.0212-4.7934-.4781-9.57C216.64,386.5226,216.5555,385.4763,216.4039,384.4393Z" transform="translate(11.9999 -44.47)" style="fill:#2d2d2b"></path><path d="M137.52,370.2372c.1224-.9832.2073-1.97.3592-2.95l.4332-3.0342a30.5177,30.5177,0,0,0,.21-6.7845,22.419,22.419,0,0,0-1.7053-6.8269,20.8516,20.8516,0,0,0-3.8869-5.9729,27.614,27.614,0,0,0-11.5993-7.0285c-1.05-.3414-2.1138-.6149-3.1774-.8574a32.1443,32.1443,0,0,0-3.2223-.4942c-.1637-.0173-.3281-.0223-.492-.0364-.9143-.0786-1.8305-.1185-2.7468-.1131a21.7333,21.7333,0,0,0-3.29.2818l-.0065,3.5258c1.7815.4432,3.6809.8914,5.4805,1.3714.0483.0129.0981.0252.1462.0382.9265.2644,1.8527.4988,2.7545.8013.9113.2643,1.8038.5723,2.6809.8968a21.7682,21.7682,0,0,1,8.9868,5.7279,14.8932,14.8932,0,0,1,2.706,4.26,17.3781,17.3781,0,0,1,1.2048,5.0055,24.3906,24.3906,0,0,1-.0991,5.42l-.4034,3.0255c-.1516,1.0371-.2356,2.0834-.3561,3.1245a104.2377,104.2377,0,0,0,.3571,23.1186c.0843.6616.1639,1.3237.2611,1.9836a76.6362,76.6362,0,0,0,2.8664,12.25q.97,2.9976,2.2328,5.8944a41.9879,41.9879,0,0,0,2.97,5.6623l2.8586-1.5355c-.3142-.846-.6457-1.8219-.9454-2.75-.2985-.9432-.5986-1.8862-.8633-2.8424-.56-1.9-1.0382-3.8276-1.4912-5.7559-.4308-1.9347-.851-3.8707-1.177-5.825-.2265-1.261-.4269-2.5266-.6095-3.7948-.1-.6915-.2019-1.3826-.282-2.0769A98.8183,98.8183,0,0,1,137.52,370.2372Z" transform="translate(11.9999 -44.47)" style="fill:#2d2d2b"></path><path d="M53.9966,281.57v0c-.0808.6873-.1463,1.4556-.2,2.2661q.2.5366.4225,1.0511C54.0548,282.9024,53.9754,281.6141,53.9966,281.57Z" transform="translate(11.9999 -44.47)" style="fill:#833215"></path><path d="M94.2521,303.9633c.1937,1.3254.3309,2.5772.4279,3.7706q1.4208.9548,2.8734,1.876C96.98,305.0815,94.2521,303.9633,94.2521,303.9633Z" transform="translate(11.9999 -44.47)" style="fill:#2d2d2b"></path><path d="M277.9732,315.5659c-2.0272-9.4962,3.4558-21.5531,5.8508-26.2032l-.2074-.8979c-4.5162,4.6095-8.21,17.201-8.21,17.201a58.0226,58.0226,0,0,1-2.0456-13.7488,40.0244,40.0244,0,0,1-4.4444,5.7094c1.5389,4.617,1.8323,10.7446-.532,18.8226,0,0-.5711-8.8582-8.2711-11.4249a38.8339,38.8339,0,0,1,3.3376,19.5261,87.85,87.85,0,0,0,18.8739-11.1163,49.7012,49.7012,0,0,1,2.5559-11.75C281.9307,304.6337,277.9732,315.5659,277.9732,315.5659Z" transform="translate(11.9999 -44.47)" style="fill:#2d2d2b"></path><path d="M245.3552,324.9158v6.0118q3.1616-.8739,6.3379-1.9054C250.2915,326.9517,248.1935,324.9158,245.3552,324.9158Z" transform="translate(11.9999 -44.47)" style="fill:#2d2d2b"></path><path d="M251.1334,318.313c.0653.1281,1.8264,3.5024,2.4759,10.07q3.4729-1.1872,6.9016-2.5833C259.0982,323.1159,256.38,320.0741,251.1334,318.313Z" transform="translate(11.9999 -44.47)" style="fill:#2d2d2b"></path><path d="M113.8873,313.7012a4.4437,4.4437,0,0,0-3.6188,2.4879c-1.8167-7.7328-1.37-13.6524.1672-18.161a38.3473,38.3473,0,0,1-7.31-9.8427c-1.9706,14.7175-3.6525,20.0813-4.61,22.0314,5.01,3.1272,10.2275,5.96,15.2857,8.483A11.2359,11.2359,0,0,1,113.8873,313.7012Zm-3.6172,2.4874c.0052.0218.0093.0428.0144.0647A.1175.1175,0,0,1,110.27,316.1886Z" transform="translate(11.9999 -44.47)" style="fill:#2d2d2b"></path><path d="M237.6552,322.23c-3.6093,0-1.8331,7.7853-.9958,10.8455,2.3259-.51,4.6859-1.0759,7.0628-1.7057C242.3521,327.14,240.2122,322.23,237.6552,322.23Z" transform="translate(11.9999 -44.47)" style="fill:#2d2d2b"></path><path d="M232.9233,333.853q.6286-.124,1.2615-.2535c-.59-.1861-1.2515-.42-1.9665-.7084Z" transform="translate(11.9999 -44.47)" style="fill:#833215"></path><path d="M234.1932,259.9371c.02-.0548.0362-.1051.0562-.1594l-.0016-.004c-.0337.0915-.0613.1771-.0961.27.0207-.0538.055-.14.1028-.2532l0-.0008C234.2305,259.8455,234.21,259.895,234.1932,259.9371Z" transform="translate(11.9999 -44.47)" style="fill:#833215"></path><path d="M226.5574,250.623l0,0a7.902,7.902,0,0,0,3.2235-2.3892h0A7.9029,7.9029,0,0,1,226.5574,250.623Z" transform="translate(11.9999 -44.47)" style="fill:#833215"></path><path d="M247.9239,249.8674q.4705-.0259.96-.0265l0,0C248.5575,249.8406,248.2378,249.85,247.9239,249.8674Z" transform="translate(11.9999 -44.47)" style="fill:#c37e47"></path><path d="M234.2545,259.79c.1228-.2905.3371-.7625.6561-1.3483-.3181.5843-.5339,1.0576-.6564,1.3475Z" transform="translate(11.9999 -44.47)" style="fill:#c37e47"></path><path d="M234.5825,258.8336c-.1035.3055-.2175.6213-.3347.94l.0016.004Q234.4269,259.295,234.5825,258.8336Z" transform="translate(11.9999 -44.47)" style="fill:#c37e47"></path><path d="M256.54,244.0927a34.5944,34.5944,0,0,1,6.7812,19.9542s-5.1783-8.9383-14.1166,0a13.58,13.58,0,0,1-2.6291-3.54,13.58,13.58,0,0,0,2.6293,3.5405,49.0684,49.0684,0,0,1,22.4583,26.86,22.639,22.639,0,0,0-16.0449-6.4167,21.0591,21.0591,0,0,1,13.298,13.1356,40.0244,40.0244,0,0,0,4.4444-5.7094c-.7726-16.9806,2.7123-37.519-2.1676-57.2411a34.8932,34.8932,0,0,1-.9936-5.8253A32.4586,32.4586,0,0,1,256.54,244.0927Z" transform="translate(11.9999 -44.47)" style="fill:#c37e47"></path><path d="M235.3992,248.588c.0344.0941.0712.1844.1028.2831-.0315-.0983-.0674-.1893-.1017-.283Z" transform="translate(11.9999 -44.47)" style="fill:#c37e47"></path><path d="M274.8653,212.5358c-.7,3.6773-1.743,9.9892-4.6655,16.3148a34.8932,34.8932,0,0,0,.9936,5.8253c4.88,19.7221,1.395,40.26,2.1676,57.2411a58.0226,58.0226,0,0,0,2.0456,13.7488s3.6938-12.5915,8.21-17.201l.2074.8979c-2.395,4.65-7.878,16.707-5.8508,26.2032,0,0,3.9575-10.9322,6.9077-13.8824a49.7012,49.7012,0,0,0-2.5559,11.75c10.5189-8.2843,18.4875-19.3992,21.0528-34.3154,3.5569-27.02-7.2411-49.9318-24.501-67.6045-.4637-.45-1.6813-1.6221-3.359-3.1854C275.3229,209.841,275.1068,211.2679,274.8653,212.5358Zm22.3872,44.5486s2.5231,21.9469-2.5,31.4416a22.0078,22.0078,0,0,0-3.996-13.2564s-.0961,16.4556-1.4569,20.7989a61.3519,61.3519,0,0,1-2.7216-24.1334s-3.6081.8588-2.91,10.6673c0,0-7.126-28.61-2.3633-37.29a19.1814,19.1814,0,0,0,3.7421,10.4341s1.2918-23.72-7.5613-31.7287C277.486,224.0182,294.7527,232.06,297.2525,257.0844Z" transform="translate(11.9999 -44.47)" style="fill:#e6ae81"></path><path d="M124.2376,284.4908a22.6359,22.6359,0,0,0-16.0417,6.4167c3.85-20.5333,22.4583-26.86,22.4583-26.86a51.9311,51.9311,0,0,1,13.6034-4.4211q-.19-.3912-.4-.7526.21.3615.4.7523a51.9309,51.9309,0,0,0-13.6035,4.4209c-8.9383-8.9383-14.1166,0-14.1166,0,0-7.0559,3.002-13.1269,7.1093-18.1365a30.5368,30.5368,0,0,1-13.38-10.1067c-.09,6.4875-1.78,12.6407-3.7161,18.822v.0042c-1.18,14.6439-2.3455,25.4985-3.4244,33.5555a38.3473,38.3473,0,0,0,7.31,9.8427A21.5668,21.5668,0,0,1,124.2376,284.4908Z" transform="translate(11.9999 -44.47)" style="fill:#c37e47"></path><path d="M157.2864,251.4447s-.1145-.0428-.3114-.1115h0c.1973.0689.312.1118.312.1118-.0195-.0636-.0446-.1222-.0652-.1848h0C157.2419,251.3227,157.2669,251.3812,157.2864,251.4447Z" transform="translate(11.9999 -44.47)" style="fill:#c37e47"></path><path d="M128.7322,253.2093l.001,0c7.3148-4.8949,16.2771-4.491,22.1884-3.4216v0C145.01,248.7177,136.0473,248.3137,128.7322,253.2093Z" transform="translate(11.9999 -44.47)" style="fill:#c37e47"></path><path d="M121.5363,235.4888c.3533.2711.7133.5367,1.0885.79-.39-.2787-.7735-.5659-1.1535-.8576C121.4934,235.4436,121.514,235.4668,121.5363,235.4888Z" transform="translate(11.9999 -44.47)" style="fill:#c37e47"></path><path d="M99.7564,168.09a11.2024,11.2024,0,0,0-.1472-1.8523A125.6759,125.6759,0,0,0,82.38,172.6063C90.036,174.1254,99.7564,174.7442,99.7564,168.09Z" transform="translate(11.9999 -44.47)" style="fill:#e6ae81"></path><path d="M307.6721,138.6176c-7.4316-9.4536-12.2924-27.06-20.4432-37.4284s-30.4055-20.2739-38.0768-30.0323c-7.6616-9.7461-17.913-11.3625-28.4506-4.46-10.5351,6.9056-52.1722,14.55-73.5013,26.4468-11.76,6.5591-54.5051,14.2207-61.7635,23.6066-8.3429,10.7871-17.763,23.731-24.9114,37.5158A110.9081,110.9081,0,0,0,55.5734,164.88l.0021,0c.7745-.6734,1.2164-1.0265,1.2164-1.0265,14.5336-12.7755,63.9933-44.7914,128.8272-35.808,103.4686,14.3379,130.5276,77.7922,133.37,120.6716,0,0,.0251.2368.06.6642l.0015.0188q.0138.1721.0292.386l.0093.13c.0054.0772.0107.1576.0162.2419.0044.068.0089.14.0134.2126.0078.1258.0154.2563.0232.3955.0052.0928.01.188.0155.2866.0046.09.0093.1784.0138.2734.0077.16.0151.3288.0223.5023.0041.0977.0079.1971.0118.299q.0042.11.0081.223c.7873-3.7878,2.79-13.4429,3.5978-17.5185.0178-.09.0342-.183.05-.2779C333.5725,176.6325,314.5645,147.3852,307.6721,138.6176Z" transform="translate(11.9999 -44.47)" style="fill:#d4271b"></path><path d="M174.4045,160.37q-2.13-.2171-4.3179-.3927a28.7673,28.7673,0,0,1,1.5417,3.7788A21.1729,21.1729,0,0,0,174.4045,160.37Z" transform="translate(11.9999 -44.47)" style="fill:#d4271b"></path><path d="M195.41,310.1a9.7925,9.7925,0,0,1-.74-1.21c-2.16,1.53-1.53,2.65-1.36,2.89-1.74-2.06-.92-3.69-.8-3.9a20.4263,20.4263,0,0,0-1.6,2.4c-.53-.7-1.48-1.44-1.17-.97.2.3-.14,1.05-.51,1.69a10.1346,10.1346,0,0,0-1.16-1.74c.13.25.31,1.02-.93,2.58.15-.42-.04-1.3-2.1-2.95a4.85,4.85,0,0,1-.96,1.16,21.2091,21.2091,0,0,0-.32-5.69,24.2324,24.2324,0,0,0,6.17,1.31,24.5948,24.5948,0,0,0,5.73-1.16A21.1088,21.1088,0,0,0,195.41,310.1Z" transform="translate(11.9999 -44.47)" style="fill:#7b4e28"></path><path d="M223.3671,332.6021a37.922,37.922,0,0,0,1.9847-3.7372,26.9976,26.9976,0,0,1-8.8716-13.4522s-6.7374,6.6156.6417,13.9947c0,0-20.229-3.7849-21.7114-19.303a9.3823,9.3823,0,0,1-.74-1.2126c-2.1652,1.5311-1.5324,2.6513-1.3617,2.885-1.87-2.2071-.7843-3.9141-.7843-3.9141a19.929,19.929,0,0,0-1.6171,2.42c-.5258-.6988-1.4769-1.4436-1.1634-.9685.1985.3008-.1448,1.0474-.5108,1.6833a11.47,11.47,0,0,0-1.2046-1.8c.1123.1572.4878.9115-.886,2.6433.1423-.4211-.0436-1.2966-2.1042-2.9489a4.8141,4.8141,0,0,1-.956,1.1621c-1.2809,15.6444-21.3451,19.3535-21.3451,19.3535,7.3792-7.3791.6417-13.9947.6417-13.9947a26.9721,26.9721,0,0,1-8.9821,13.5387,38.065,38.065,0,0,0,1.945,3.6507c-.0171-.12.21-.675,3.27-3.1288a18.82,18.82,0,0,0,6.5382,9.95,4.5662,4.5662,0,0,1,1.4868-4.499c.1009.6206,1.0611,2.2419,4.8614,6.4,0,0-.014-.0995,1.07-6.099l5.5344,9.5023a14.2013,14.2013,0,0,0,2.9677-6.3529,24.7687,24.7687,0,0,0,4.7323,7.8276c1.5336-1.0845,3.0888-5.3833,3.1522-7.8906a19.54,19.54,0,0,0,2.9506,6.9307l4.0865-5.1675c2.4034,3.2631,4.4779,3.2914,4.4779,3.2914l4.5408-8.44a17.06,17.06,0,0,1,2.4709,3.124,11.6121,11.6121,0,0,1,4.0846-1.2361c1.602-2.8529,1.3539-3.526,1.3539-3.526a3.6513,3.6513,0,0,1,1.4736,3.2127q.8436-.0906,1.7125-.1913a11.2262,11.2262,0,0,0,2.99-6.8364C223.157,331.9271,223.3842,332.4818,223.3671,332.6021Z" transform="translate(11.9999 -44.47)" style="fill:#e6ae81"></path><path d="M53.7966,283.8356c-.1616,2.4453-.2115,5.2873-.22,7.5559q.7062.7291,1.428,1.4545c-.3453-3.0115-.6126-5.8708-.7856-7.9593Q53.9979,284.3712,53.7966,283.8356Z" transform="translate(11.9999 -44.47)" style="fill:#e53224"></path><path d="M121.6407,324.1818c-4.7675,2.32-3.82,5.5465-3.82,5.5465A33.6355,33.6355,0,0,1,113.8017,318.7c-5.0582-2.5231-10.2752-5.3558-15.2857-8.483-.5409,1.1017-.8509,1.1171-.8509,1.1171a13.5528,13.5528,0,0,0-.1117-1.724q-1.4509-.9217-2.8734-1.876a36.9443,36.9443,0,0,1-1.0862,13.601,233.9189,233.9189,0,0,0,31.0649,14.1668C120.2576,327.93,121.6407,324.1818,121.6407,324.1818Z" transform="translate(11.9999 -44.47)" style="fill:#e53224"></path><path d="M146.8247,335.4375a5.4588,5.4588,0,0,0-.985-1.89,19.3073,19.3073,0,0,1-2.9938.746,11.1418,11.1418,0,0,0,.3526-2.6118c-.8175-.3726-1.8407-.8108-3.0417-1.3137a28.2832,28.2832,0,0,1-3.564,7.0151c0-8.1138-3.5358-7.3731-3.5358-7.3731-3.7078,0-5.1189,3.786-5.6551,6.4977q9.5769,3.46,20.0394,6.4046l.0051.0015Z" transform="translate(11.9999 -44.47)" style="fill:#e53224"></path><path d="M89.0861,318.7675l.046.0268-.0437-.066C89.0884,318.7411,89.0862,318.7546,89.0861,318.7675Z" transform="translate(11.9999 -44.47)" style="fill:#e53224"></path><path d="M58.8773,296.5823c.0243.0226.0478.0454.0721.068.0023-.1954.0045-.3024.0045-.3024C58.9252,296.4293,58.9051,296.5019,58.8773,296.5823Z" transform="translate(11.9999 -44.47)" style="fill:#e53224"></path><path d="M319.1572,251.053c-.0052-.0986-.01-.1938-.0155-.2866-.0078-.1392-.0154-.27-.0232-.3955-.0045-.0725-.009-.1446-.0134-.2126-.0055-.0843-.0108-.1647-.0162-.2419l-.0093-.13q-.0156-.2139-.0292-.386l-.0015-.0188c-.0345-.4274-.06-.6642-.06-.6642-2.8426-42.8794-29.9016-106.3337-133.37-120.6716-64.8339-8.9834-114.2936,23.0325-128.8272,35.808,0,0-.4419.3531-1.2164,1.0265-5.9929,5.21-32.1424,29.8322-31.6594,62.4087.2236,14.9819,5.0995,30.4861,14.6528,45.3289A120.0526,120.0526,0,0,0,51.2772,288.96a55.3518,55.3518,0,0,1-1.4751-18.2948c-1.5665,3.432-.8414,10.7245-.8414,10.7245-4.6433-14.7583-2.591-19.4542-2.591-19.4542-2.7373,4.7055-2.4976,7.1131-2.4976,7.1131a68.7669,68.7669,0,0,1-2.8839-22.3123,45.8836,45.8836,0,0,1-1.71-22.1162q.4331-2.541,1.0363-4.9632c5.2044-21.0492,19.42-35.4629,37.72-44.9194a42.7166,42.7166,0,0,1-4.7306-4.4843,83.68,83.68,0,0,0,9.0768,2.3534,125.6759,125.6759,0,0,1,17.23-6.3688c-1.4628-8.742-13.4523-5.9005-13.4523-5.9005,17.26-11.1169,37.0235-.6768,39.3162.6061.0718-.0092.1434-.0194.2152-.0286-.2173-9.7382-20.0667-8.29-20.0667-8.29s11.597-11.54,35.4289-11.54c17.6615,0,25.9336,12.4451,29.0361,18.8928q2.1853.1767,4.3179.3927c10.0032-15.31-12.9471-30.8825-12.9471-30.8825,27.1378,2.8338,36.5531,19.4655,39.8178,30.9791l-.0028-.0127s.8326.4737,1.9522.9771a4.68,4.68,0,0,0,.3889.8908c.3058.5135-1.54,1.747-.8441,1.8561l-.13.7558.9741,4.2828c26.9648,3.2862,57.989,18.4042,78.44,41.4805.1039,1.0974-.62,1.6775-2.9661,1.0219,0,0-.0752-.0735-.2106-.2047,17.26,17.6727,28.0579,40.5841,24.501,67.6045-2.5653,14.9162-10.5339,26.0311-21.0528,34.3154A87.85,87.85,0,0,1,263.4511,324.55a30.9677,30.9677,0,0,1-1.4126,6.6218,12.7625,12.7625,0,0,0-1.5276-5.3725q-3.421,1.3986-6.9016,2.5833c.1474,1.49.2383,3.1426.2383,4.9612a19.2154,19.2154,0,0,0-2.1545-4.3218q-3.1705,1.032-6.3379,1.9054v6.4557s-.5964-2.8123-1.633-6.0131c-2.3769.63-4.7369,1.1958-7.0628,1.7057.2047.748.3542,1.2178.3542,1.2178a19.1232,19.1232,0,0,1-2.8288-.6942q-.6332.1294-1.2615.2535c-5.64,1.1127-11.0042,1.9-15.8166,2.4567q-.8682.1-1.7125.1913c-.5991.0644-1.1923.1265-1.7716.1838-.3708.0368-.72.0809-1.0559.13a11.6121,11.6121,0,0,0-4.0846,1.2361c-4.0057,2.2828-1.7976,6.6247-3.2225,9.4591h.0017c16.3944.9168,30.4414-.1013,42.4818-2.5587a63.8385,63.8385,0,0,0,7.3812-1.7449c.15-.0407.293-.0864.4424-.1277q1.332-.3679,2.63-.7593c.1324-.04.266-.0795.3978-.12.8957-.2755,1.7746-.5625,2.6443-.8554.2258-.076.4525-.1514.6764-.2285q1.2946-.4461,2.551-.9175c.2185-.082.4344-.1656.6511-.2486.8427-.3229,1.6767-.6515,2.4936-.9908.1073-.0445.2123-.0905.3192-.1353q1.1652-.4891,2.2934-1.0013c.1893-.0855.38-.17.568-.2566q1.1657-.5363,2.2938-1.0953c.1952-.0966.3884-.1943.582-.2918.7616-.3837,1.5146-.7726,2.2512-1.1711.107-.0579.2109-.1175.3174-.1757q1.0188-.5568,2.0046-1.1323c.1567-.0913.3152-.1814.4707-.2733q1.042-.6159,2.0475-1.2522.26-.164.5165-.3292c.6722-.4312,1.3358-.8671,1.9847-1.3107.1126-.077.222-.1555.3338-.2328q.8923-.6166,1.7548-1.2487c.1256-.0919.2532-.1828.3779-.2752q.9249-.6855,1.8144-1.3887.2283-.18.4542-.36.8834-.7062,1.7363-1.4269c.1114-.0944.22-.19.3305-.285q.7819-.671,1.537-1.3544c.0974-.0882.1968-.1754.2935-.2638.5431-.4969,1.0731-1,1.5952-1.5053q.1967-.1907.3918-.3819.7677-.7547,1.5066-1.521c.1066-.1108.2106-.2225.3162-.3337q.6852-.7213,1.3454-1.452c.0708-.0785.1436-.1563.214-.235.4738-.53.9347-1.0641,1.3887-1.6008.1121-.1326.2244-.2651.3353-.3981q.661-.7924,1.2948-1.5937c.0971-.1229.192-.2465.2882-.37q.6023-.7722,1.1811-1.5515c.0458-.0619.0934-.1234.139-.1854.4093-.5563.806-1.116,1.1966-1.6772.0938-.1348.1882-.2694.2809-.4045q.5628-.8194,1.1-1.6449c.0865-.1328.1712-.266.2567-.3991.3526-.5491.6992-1.0994,1.0353-1.6518q.0588-.0965.1169-.193.4986-.8245.9711-1.6532c.0768-.1341.1544-.2681.23-.4023C315.9764,288.8076,320.0578,268.5307,319.1572,251.053Z" transform="translate(11.9999 -44.47)" style="fill:#e53224"></path><path d="M53.5767,291.3915c.0084-2.2686.0583-5.1106.22-7.5559.0536-.81.1191-1.5788.2-2.2661v0c-.0211.0444.0583,1.3327.2226,3.317.173,2.0885.44,4.9478.7856,7.9593a94.7782,94.7782,0,0,0,2.1286,12.82,32.7111,32.7111,0,0,1,1.744-9.0835c.0278-.08.0479-.153.0766-.2344,0,0-.0022.107-.0045.3024-.0229,1.9578-.052,13.08,2.0873,20.512,0,0,.3952-5.3881,1.5337-6.8539,0,0,.017,2.54,3.0114,16.0062a13.4831,13.4831,0,0,1,2.4027-4.8886s1.18,7.7141,4.4418,12.3127c0-3.8125-.2022-5.6126,1.1325-8.0946l2.5972,6.0092s.16-5.1334,2.0052-6.4167c1.4437.9625,1.965,7.0583,1.965,7.0583a24.9166,24.9166,0,0,0,1.9251-9.7854s2.8875.4813,2.3527,7.0049c0,0,4.6563-6.1372,4.6821-10.7469,0-.0129.0023-.0264.0023-.0392l.0437.066a14.4628,14.4628,0,0,1,2.1164,7.52,14.4947,14.4947,0,0,0,2.3453-4.98,36.9443,36.9443,0,0,0,1.0862-13.601c-.097-1.1934-.2342-2.4452-.4279-3.7706,0,0,2.728,1.1182,3.3013,5.6466a13.5528,13.5528,0,0,1,.1117,1.724s.31-.0154.8509-1.1171c.9575-1.95,2.6394-7.3139,4.61-22.0314,1.0789-8.057,2.244-18.9116,3.4244-33.5555v-.0042c1.9365-6.1813,3.6261-12.3345,3.7161-18.822-5.2321-6.88-7.2074-15.038-8.2753-20.47-.5729,1.1069-.8714,1.8139-.8714,1.8139a14.0418,14.0418,0,0,1,.2-5.3887c-.1271-.727-.2471-1.4948-.36-2.2962a8.5751,8.5751,0,0,0-2.2816,2.0532c-6.4578,14.1261-5.0767,33.02-5.0767,33.02,7.0706-7.0706,7.0584-14.6441,7.0584-14.6441,8.9833,12.1814-4.4576,52.3356-4.4576,52.3356,1.3174-13.7662-5.4883-14.9715-5.4883-14.9715,2.6051,17.5658-5.1333,33.871-5.1333,33.871-2.5666-6.0958-2.7479-29.1911-2.7479-29.1911-8.4539,8.4539-7.9025,44.253-7.9025,44.253-9.474-13.3259,0-63.85,0-63.85-13.2171,18.2662-6.6745,47.5046-6.6745,47.5046-9.9459-19.25-5.775-64.9974-5.775-64.9974C58.31,243.64,58.31,266.1611,58.31,266.1611c-19.8515-59.0756,9.9459-74.7427,9.9459-74.7427-10.0969,12.4662-.6417,28.0916-.6417,28.0916-2.8875-15.5251,21.4746-24.7967,21.4746-24.7967-14.1377,6.8406-6.2559,26.65-6.2559,26.65-.0025-10.3093,4.8794-15.6767,10.3316-18.4586a36.6306,36.6306,0,0,1,6.4164-9.0795c-.0233-.4257-.0455-.844-.0662-1.25a9.9291,9.9291,0,0,1,2.5622-7.1724c-10.6677-1.071-19.1282-6.5948-24.043-10.6661-18.3,9.4565-32.5151,23.87-37.7195,44.9194q-.6016,2.4255-1.0363,4.9632a45.8836,45.8836,0,0,0,1.71,22.1162,68.7669,68.7669,0,0,0,2.8839,22.3123s-.24-2.4076,2.4976-7.1131c0,0-2.0523,4.6959,2.591,19.4542,0,0-.7251-7.2925.8414-10.7245A55.3518,55.3518,0,0,0,51.2772,288.96a39.4987,39.4987,0,0,0,2.3269,6.5464S53.5679,293.763,53.5767,291.3915Z" transform="translate(11.9999 -44.47)" style="fill:#e6ae81"></path><path d="M219.8873,176.6007c.0021.0129.0027.0265.0048.0394,2.8938.9466,5.875,1.9435,7.1833,2.3824l.0242-.0123Q223.4854,177.6965,219.8873,176.6007Z" transform="translate(11.9999 -44.47)" style="fill:#f5d0b0"></path><path d="M209.4462,182.7385h0c-1.9284-.7546-3.5266-.1923-5.2535.7413-.0323.4058-.0825.8141-.1439,1.2237C205.6732,184.1552,207.4682,183.5077,209.4462,182.7385Z" transform="translate(11.9999 -44.47)" style="fill:#f5d0b0"></path><path d="M226.3553,179.3861q.0621-.0316.1247-.0629a54.7176,54.7176,0,0,0-6.4485.72c-.0025.0443-.007.0891-.01.1334C222.002,179.8671,224.124,179.6014,226.3553,179.3861Z" transform="translate(11.9999 -44.47)" style="fill:#f5d0b0"></path><path d="M100.4563,205.3152c-.0093-.0894-.018-.18-.0272-.27-7.84,4.3583-11.3407,13.7842-11.3407,13.7842.5577-3.902.9655-9.6231,4.0757-15.9245-5.4522,2.7819-10.3341,8.1493-10.3316,18.4586,0,0-7.8818-19.81,6.2559-26.65,0,0-24.3621,9.2716-21.4746,24.7967,0,0-9.4552-15.6254.6417-28.0916,0,0-29.7974,15.6671-9.9459,74.7427,0,0,0-22.521,4.1709-31.3151,0,0-4.1709,45.7474,5.775,64.9974,0,0-6.5426-29.2384,6.6745-47.5046,0,0-9.474,50.5239,0,63.85,0,0-.5514-35.7991,7.9025-44.253,0,0,.1813,23.0953,2.7479,29.1911,0,0,7.7384-16.3052,5.1333-33.871,0,0,6.8057,1.2053,5.4883,14.9715,0,0,13.4409-40.1542,4.4576-52.3356,0,0,.0122,7.5735-7.0584,14.6441,0,0-1.3811-18.8935,5.0767-33.02-3.6146,4.5708-3.9388,12.6218-3.9388,12.6218C93.4722,212.8438,97.3271,207.6431,100.4563,205.3152Z" transform="translate(11.9999 -44.47)" style="fill:#edb586"></path><path d="M163.3507,181.6135l-.0051-.0021c-6.0636-2.5212-15.3244-2.4009-15.3244-2.4009-3.8945-.73-7.3086-1.3241-10.3225-1.8056a48.1779,48.1779,0,0,0-6.2771,1.4565C143.8383,178.3992,155.8621,179.62,163.3507,181.6135Z" transform="translate(11.9999 -44.47)" style="fill:#f5d0b0"></path><path d="M101.32,211.7591a14.0418,14.0418,0,0,0-.2,5.3887s.2985-.707.8714-1.8139c-.2048-1.0417-.3771-1.9854-.5319-2.7981C101.4114,212.2849,101.3655,212.0216,101.32,211.7591Z" transform="translate(11.9999 -44.47)" style="fill:#f5d0b0"></path><path d="M100.4291,205.0453c-.3873-3.7743-.6611-7.7915-.8486-11.22a36.6306,36.6306,0,0,0-6.4164,9.0795c-3.11,6.3014-3.518,12.0225-4.0757,15.9245C89.0884,218.83,92.5889,209.4036,100.4291,205.0453Z" transform="translate(11.9999 -44.47)" style="fill:#f5d0b0"></path><path d="M94.7391,224.1379s.3242-8.051,3.9388-12.6218a8.5751,8.5751,0,0,1,2.2816-2.0532c-.1854-1.3137-.353-2.7093-.5032-4.1477C97.3271,207.6431,93.4722,212.8438,94.7391,224.1379Z" transform="translate(11.9999 -44.47)" style="fill:#f5d0b0"></path><path d="M180.8354,220.0115a19.0626,19.0626,0,0,0-2.61-.7884c-.0975.3024-.1957.6026-.2955.8986C179.7158,219.9778,180.8354,220.0115,180.8354,220.0115Z" transform="translate(11.9999 -44.47)" style="fill:#e6ae81"></path><path d="M229.7807,248.2342q-2.6245-.2836-4.9337-.7656a29.0752,29.0752,0,0,1,1.71,3.1544A7.9029,7.9029,0,0,0,229.7807,248.2342Z" transform="translate(11.9999 -44.47)" style="fill:#e6ae81"></path><path d="M263.3216,264.0469a34.5944,34.5944,0,0,0-6.7812-19.9542c-4.9647,2.761-11.33,4.5133-19.5375,4.5133-.543,0-1.0761-.0068-1.6026-.0179.0343.0937.07.1847.1017.283.0042.0133.0075.028.0116.0413.0556.1771.1074.36.153.5523.0045.019.0076.04.012.0591.0435.1892.0833.3839.1163.5881.0039.024.0058.0507.01.075.0311.2025.0584.41.078.628.0027.0293.003.0615.0055.0912.0177.2162.0317.4373.0373.6688.0009.0383-.001.08,0,.1188.0034.2278.0035.46-.0056.7027-.0016.0414-.0062.0865-.0082.1283-.0112.2454-.0262.495-.051.7559-.0042.0443-.0117.0924-.0163.1372-.0272.2638-.0584.5322-.1.8121-.0069.0461-.0172.0958-.0245.1422-.0444.2842-.0933.5733-.1534.8743-.01.0479-.0227.1-.0327.1479-.063.3053-.131.6157-.2109.9385-.0116.0468-.0267.0971-.0386.1442-.0837.33-.1732.6668-.2753,1.0158-.0115.0393-.026.0815-.0377.121-.1073.3614-.2222.73-.35,1.1123-.0118.0349-.0261.0724-.038.1075q-.1565.4623-.3331.9441c-.02.0543-.0358.1046-.0562.1594.0169-.0421.0373-.0916.061-.1477.1225-.29.3383-.7632.6564-1.3475l.0009-.0017q.0924-.17.1966-.3512l.0222-.038c.0629-.1091.1285-.22.1979-.3349l.0476-.0773c.0639-.1044.13-.21.199-.3182.0215-.0336.0442-.0679.0663-.1019.0663-.102.134-.2047.2051-.3094.0278-.0411.0569-.0826.0855-.124.0689-.1.1391-.2.2124-.3017.034-.0473.0692-.0949.1042-.1425.0714-.0971.144-.1944.2193-.2927.04-.0528.082-.1057.1235-.1587.0743-.0948.15-.19.2279-.2851.0463-.0567.0937-.1133.1414-.17.0773-.0922.1559-.1844.2367-.2769.0529-.0606.1068-.1209.1613-.1815q.1206-.1342.2461-.2681.0877-.0937.1781-.187.1266-.1311.2584-.2614.096-.0953.1945-.19.1332-.1276.2715-.254c.07-.0638.14-.1274.2115-.1907.0932-.0824.1884-.1638.2847-.2451.0751-.0633.15-.1263.2274-.1888.0983-.08.1989-.1585.3-.2368.08-.0617.16-.1232.2418-.1839.1038-.077.21-.1525.3175-.2277.0848-.06.1694-.119.2562-.1774.11-.0737.2225-.1455.3355-.2172.0894-.0567.1785-.1135.27-.1688.1158-.07.2348-.1375.354-.2051.0942-.0534.1877-.1072.284-.159.1223-.0658.2481-.1286.3739-.1917.0985-.0494.196-.0994.2967-.147.13-.0613.2631-.1192.3963-.1774.1024-.0448.2035-.09.3081-.1333.1375-.0563.2792-.1086.42-.1614.1057-.04.21-.0805.3175-.1179.1472-.0511.299-.0975.45-.1446.1075-.0335.2131-.0689.3227-.1.1578-.0453.3206-.085.4826-.1256.1086-.0273.215-.0569.3255-.082.1736-.0394.3525-.0724.5308-.1063.1044-.02.2062-.0426.3121-.0605.1964-.0331.3988-.0589.6009-.0851.0936-.0121.1845-.0277.2793-.0383.2406-.0268.4875-.0454.7361-.0618.0609-.0041.1194-.0114.1808-.0148.3139-.0173.6336-.0268.96-.0268l0,0h.0006s-5.3355,4.55-2.3085,10.666a13.58,13.58,0,0,0,2.6291,3.54C258.1433,255.1086,263.3216,264.0469,263.3216,264.0469Z" transform="translate(11.9999 -44.47)" style="fill:#e6ae81"></path><path d="M174.5794,229.2755q-.3375.7959-.73,1.6194a30.1124,30.1124,0,0,1,3.6169-.8177A18.5769,18.5769,0,0,0,174.5794,229.2755Z" transform="translate(11.9999 -44.47)" style="fill:#e6ae81"></path><path d="M157.2213,251.26c-.084.0238-.1637.0488-.2463.073.1969.0687.3114.1115.3114.1115C157.2669,251.3812,157.2419,251.3227,157.2213,251.26Z" transform="translate(11.9999 -44.47)" style="fill:#e6ae81"></path><path d="M150.9217,249.7872c.3647-.8573.7677-1.6676,1.1893-2.4536a59.2274,59.2274,0,0,1-12.79,1.2724,42.5258,42.5258,0,0,1-15.6749-2.6956c-4.1073,5.01-7.1093,11.0806-7.1093,18.1365,0,0,5.1783-8.9383,14.1166,0a51.9309,51.9309,0,0,1,13.6035-4.4209q-.19-.391-.4-.7523c-4.3489-7.47-15.1248-5.6641-15.1248-5.6641l0,0h-.0007C136.0473,248.3137,145.01,248.7177,150.9217,249.7872Z" transform="translate(11.9999 -44.47)" style="fill:#e6ae81"></path><path d="M187.491,207.4593a8.8848,8.8848,0,0,0,4.8937-.7208,6.1554,6.1554,0,0,0-4.2225-1.596,6.34,6.34,0,0,0-2.3531.4325A9.5753,9.5753,0,0,0,187.491,207.4593Z" transform="translate(11.9999 -44.47)" style="fill:#e6ae81"></path><path d="M227.0754,179.0225l.4928.1654c-.1562-.0573-.3123-.1209-.4686-.1777Z" transform="translate(11.9999 -44.47)" style="fill:#e6ae81"></path><path d="M220.0315,180.0428c-1.6034.2777-3.1492.6151-4.6563.9938,1.4346-.3139,2.99-.6019,4.6465-.86C220.0245,180.1319,220.029,180.0871,220.0315,180.0428Z" transform="translate(11.9999 -44.47)" style="fill:#e6ae81"></path><path d="M195.0586,187.2047c.687-.138,1.4929-.3174,2.4209-.5492-.25.046-.5067.0934-.7664.1411h0C196.1638,186.9524,195.6117,187.0824,195.0586,187.2047Z" transform="translate(11.9999 -44.47)" style="fill:#e6ae81"></path><path d="M204.1926,183.48c-1.8772,1.0149-3.9075,2.4689-6.6859,3.1688,1.7429-.4362,3.915-1.0585,6.542-1.9451C204.11,184.2939,204.16,183.8856,204.1926,183.48Z" transform="translate(11.9999 -44.47)" style="fill:#e6ae81"></path><path d="M227.7494,179.2566l-.001,0c-.4326.0126-.8458.0445-1.2684.067q-.0625.0313-.1247.0629C226.8172,179.3415,227.2787,179.2967,227.7494,179.2566Z" transform="translate(11.9999 -44.47)" style="fill:#e6ae81"></path><path d="M218.3667,176.1436c.4992.1616,1.01.3279,1.5254.4965-.0021-.0129-.0027-.0265-.0048-.0394C219.3814,176.4436,218.8732,176.2927,218.3667,176.1436Z" transform="translate(11.9999 -44.47)" style="fill:#e6ae81"></path><path d="M169.1574,245.4423c.6811-2.17-.2163-4.0794-1.7281-5.67a27.4376,27.4376,0,0,1-3.5816,2.8012A14.3855,14.3855,0,0,1,169.1574,245.4423Z" transform="translate(11.9999 -44.47)" style="fill:#edbf97"></path><path d="M224.847,247.4686a40.4,40.4,0,0,1-6.4531-1.876,37.53,37.53,0,0,1,8.4332.8634c-2.96-2.6889-7.8784-4.9257-13.0687-6.4828-1.0414,3.6522-1.3324,8.4571,2.324,12.1135,0,0,6.0981.4484,10.4752-1.4633l0,0A29.0752,29.0752,0,0,0,224.847,247.4686Z" transform="translate(11.9999 -44.47)" style="fill:#edbf97"></path><path d="M192.3847,206.7385a8.8848,8.8848,0,0,1-4.8937.7208,9.5753,9.5753,0,0,1-1.6819-1.8843c-4.3085,1.7006-5.8046,8.1312-7.5837,13.6481a19.0626,19.0626,0,0,1,2.61.7884s-1.12-.0337-2.9055.11c-.2385.7077-.4846,1.3948-.7457,2.0475-.6833,1.7082-1.3966,4.2564-2.6048,7.1063a18.5769,18.5769,0,0,1,2.8872.8017,30.1124,30.1124,0,0,0-3.6169.8177,32.8712,32.8712,0,0,1-1.6544,3.0461c12.135,1.5184,16.3372,8.8416,16.3372,8.8416a12.8324,12.8324,0,0,0-2.2972-14.4375c9.2176,2.2458,7.6648,17.0041,7.6648,17.0041a22.9367,22.9367,0,0,1,8.92-13.7534,86.9014,86.9014,0,0,1-3.68-9.4266C197.0976,217.0627,195.9576,209.8913,192.3847,206.7385Z" transform="translate(11.9999 -44.47)" style="fill:#edbf97"></path><path d="M150.9217,249.7872v0a41.5606,41.5606,0,0,1,6.053,1.5457h0c.0826-.0242.1623-.0492.2463-.073h0a8.9453,8.9453,0,0,0-3.2107-4.3921q-.9236.2483-1.9.4655C151.6894,248.12,151.2864,248.93,150.9217,249.7872Z" transform="translate(11.9999 -44.47)" style="fill:#edbf97"></path><path d="M112.55,203.2625a15.5648,15.5648,0,0,0-.16,2.1883c0,1.1538.0225,2.3606.07,3.5978a19.888,19.888,0,0,1,3.0639-7.0662A14.4744,14.4744,0,0,0,112.55,203.2625Z" transform="translate(11.9999 -44.47)" style="fill:#c37e47"></path><path d="M112.55,203.2625a15.5648,15.5648,0,0,0-.16,2.1883c0,1.1538.0225,2.3606.07,3.5978a19.888,19.888,0,0,1,3.0639-7.0662A14.4744,14.4744,0,0,0,112.55,203.2625Z" transform="translate(11.9999 -44.47)" style="fill:#fff;opacity:0.17"></path><path d="M158.57,234.5784l.0008,0c.5532-.1058,1.0894-.1933,1.6243-.28l.0007-.0005C159.66,234.3849,159.1234,234.4725,158.57,234.5784Z" transform="translate(11.9999 -44.47)" style="fill:#c37e47"></path><path d="M158.57,234.5784l.0008,0c.5532-.1058,1.0894-.1933,1.6243-.28l.0007-.0005C159.66,234.3849,159.1234,234.4725,158.57,234.5784Z" transform="translate(11.9999 -44.47)" style="fill:#fff;opacity:0.17"></path><path d="M149.2939,216.0147a54.665,54.665,0,0,1,6.8407-.6349,8.89,8.89,0,0,0-4.0214-1.8538A12.0708,12.0708,0,0,1,149.2939,216.0147Z" transform="translate(11.9999 -44.47)" style="fill:#c37e47"></path><path d="M149.2939,216.0147a54.665,54.665,0,0,1,6.8407-.6349,8.89,8.89,0,0,0-4.0214-1.8538A12.0708,12.0708,0,0,1,149.2939,216.0147Z" transform="translate(11.9999 -44.47)" style="fill:#fff;opacity:0.17"></path><path d="M133.3393,229.7019c2.2235-1.0011,6.2948-1.7453,6.8787-2.5346-5.8519.0738-17.1773,2.788-17.4019,2.8906,4.37-3.5322,11.0078-5.8551,16.93-7.3406.4716-.2984,7.2252-1.8126,7.7193-2.0726-3.3047-.0544-11.6174.7251-11.6174.7251a15.1643,15.1643,0,0,1,4.8337-3.0663c-6.276-.1221-9.9761-4.1186-10.82-10.081a14.8745,14.8745,0,0,1,.97-8.0482c-6.2725,5.1979-10.281,13.7333-10.281,13.7333-1.1731-6.209.8823-9.7052,1.2622-11.9252-6.0958,2.4057-7.9195,17.0585-7.9195,17.0585-.19-.333-.3565-.6663-.5125-.9994,1.1307,6.39,3.4644,12.7546,8.09,17.38.38.2917.7634.5789,1.1535.8576.5417.3662,1.1111.71,1.7,1.0372A22.7519,22.7519,0,0,1,133.3393,229.7019Z" transform="translate(11.9999 -44.47)" style="fill:#c37e47"></path><path d="M133.3393,229.7019c2.2235-1.0011,6.2948-1.7453,6.8787-2.5346-5.8519.0738-17.1773,2.788-17.4019,2.8906,4.37-3.5322,11.0078-5.8551,16.93-7.3406.4716-.2984,7.2252-1.8126,7.7193-2.0726-3.3047-.0544-11.6174.7251-11.6174.7251a15.1643,15.1643,0,0,1,4.8337-3.0663c-6.276-.1221-9.9761-4.1186-10.82-10.081a14.8745,14.8745,0,0,1,.97-8.0482c-6.2725,5.1979-10.281,13.7333-10.281,13.7333-1.1731-6.209.8823-9.7052,1.2622-11.9252-6.0958,2.4057-7.9195,17.0585-7.9195,17.0585-.19-.333-.3565-.6663-.5125-.9994,1.1307,6.39,3.4644,12.7546,8.09,17.38.38.2917.7634.5789,1.1535.8576.5417.3662,1.1111.71,1.7,1.0372A22.7519,22.7519,0,0,1,133.3393,229.7019Z" transform="translate(11.9999 -44.47)" style="fill:#fff;opacity:0.17"></path><path d="M125.4916,237.9328a25.9975,25.9975,0,0,0,4.4538,1.6514,64.8026,64.8026,0,0,1,5.1682-3.9277A25.3141,25.3141,0,0,0,125.4916,237.9328Z" transform="translate(11.9999 -44.47)" style="fill:#c37e47"></path><path d="M125.4916,237.9328a25.9975,25.9975,0,0,0,4.4538,1.6514,64.8026,64.8026,0,0,1,5.1682-3.9277A25.3141,25.3141,0,0,0,125.4916,237.9328Z" transform="translate(11.9999 -44.47)" style="fill:#fff;opacity:0.17"></path><path d="M155.9421,211.517a17.9473,17.9473,0,0,0-1.2415-4,11.9836,11.9836,0,0,1-1.0242,3.5536A18.9428,18.9428,0,0,1,155.9421,211.517Z" transform="translate(11.9999 -44.47)" style="fill:#c37e47"></path><path d="M155.9421,211.517a17.9473,17.9473,0,0,0-1.2415-4,11.9836,11.9836,0,0,1-1.0242,3.5536A18.9428,18.9428,0,0,1,155.9421,211.517Z" transform="translate(11.9999 -44.47)" style="fill:#fff;opacity:0.17"></path><path d="M129.8624,208.2225c.8435,5.9624,4.5436,9.9589,10.82,10.081a37.3459,37.3459,0,0,1,8.6119-2.2888,12.0708,12.0708,0,0,0,2.8193-2.4887,51.38,51.38,0,0,0-10.9037-1.0432,23.8878,23.8878,0,0,1,12.4669-1.412,11.9836,11.9836,0,0,0,1.0242-3.5536c-2.8453-6.3629-9.0227-9.5981-15.0084-11.23a15.2683,15.2683,0,0,0-8.86,3.8874A14.8745,14.8745,0,0,0,129.8624,208.2225Zm14.396-7.4143c1.7717,0,3.2079,1.1471,3.2079,2.562s-1.4362,2.562-3.2079,2.562-3.2079-1.147-3.2079-2.562S142.4867,200.8082,144.2584,200.8082Z" transform="translate(11.9999 -44.47)" style="fill:#2d2d2b"></path><path d="M129.8624,208.2225c.8435,5.9624,4.5436,9.9589,10.82,10.081a37.3459,37.3459,0,0,1,8.6119-2.2888,12.0708,12.0708,0,0,0,2.8193-2.4887,51.38,51.38,0,0,0-10.9037-1.0432,23.8878,23.8878,0,0,1,12.4669-1.412,11.9836,11.9836,0,0,0,1.0242-3.5536c-2.8453-6.3629-9.0227-9.5981-15.0084-11.23a15.2683,15.2683,0,0,0-8.86,3.8874A14.8745,14.8745,0,0,0,129.8624,208.2225Zm14.396-7.4143c1.7717,0,3.2079,1.1471,3.2079,2.562s-1.4362,2.562-3.2079,2.562-3.2079-1.147-3.2079-2.562S142.4867,200.8082,144.2584,200.8082Z" transform="translate(11.9999 -44.47)" style="fill:#2d2d2b"></path><path d="M112.55,203.2625a14.4744,14.4744,0,0,1,2.9743-1.28,19.888,19.888,0,0,0-3.0639,7.0662,66.5946,66.5946,0,0,0,.9209,8.9929c.156.3331.3225.6664.5125.9994,0,0,1.8237-14.6528,7.9195-17.0585-.38,2.22-2.4353,5.7162-1.2622,11.9252,0,0,4.0085-8.5354,10.281-13.7333a15.2683,15.2683,0,0,1,8.86-3.8874,50.3486,50.3486,0,0,0-14.6624-1.5751c27.3382-6.9331,34.0661,10.3469,34.5538,11.72a37.132,37.132,0,0,0-10.6774-16.7753c-2.1279-.0948-4.2392-.1126-6.251-.1126C131.3118,189.5439,114.3133,190.7579,112.55,203.2625Z" transform="translate(11.9999 -44.47)" style="fill:#f5d0b0"></path><path d="M112.55,203.2625a14.4744,14.4744,0,0,1,2.9743-1.28,19.888,19.888,0,0,0-3.0639,7.0662,66.5946,66.5946,0,0,0,.9209,8.9929c.156.3331.3225.6664.5125.9994,0,0,1.8237-14.6528,7.9195-17.0585-.38,2.22-2.4353,5.7162-1.2622,11.9252,0,0,4.0085-8.5354,10.281-13.7333a15.2683,15.2683,0,0,1,8.86-3.8874,50.3486,50.3486,0,0,0-14.6624-1.5751c27.3382-6.9331,34.0661,10.3469,34.5538,11.72a37.132,37.132,0,0,0-10.6774-16.7753c-2.1279-.0948-4.2392-.1126-6.251-.1126C131.3118,189.5439,114.3133,190.7579,112.55,203.2625Z" transform="translate(11.9999 -44.47)" style="fill:#fff;opacity:0.17"></path><path d="M166.5455,206.2746c-.8517-1.9505-2.5871-8.38-4.0666-14.1419a25.4487,25.4487,0,0,0-3.2587-1.09C163.8388,197.19,164.8613,203.9584,166.5455,206.2746Z" transform="translate(11.9999 -44.47)" style="fill:#f5d0b0"></path><path d="M166.5455,206.2746c-.8517-1.9505-2.5871-8.38-4.0666-14.1419a25.4487,25.4487,0,0,0-3.2587-1.09C163.8388,197.19,164.8613,203.9584,166.5455,206.2746Z" transform="translate(11.9999 -44.47)" style="fill:#fff;opacity:0.17"></path><path d="M168.1947,198.6132a29.0655,29.0655,0,0,1-1.8283-4.2858,15.5588,15.5588,0,0,0-1.368-.9378A21.1489,21.1489,0,0,0,168.1947,198.6132Z" transform="translate(11.9999 -44.47)" style="fill:#f5d0b0"></path><path d="M168.1947,198.6132a29.0655,29.0655,0,0,1-1.8283-4.2858,15.5588,15.5588,0,0,0-1.368-.9378A21.1489,21.1489,0,0,0,168.1947,198.6132Z" transform="translate(11.9999 -44.47)" style="fill:#fff;opacity:0.17"></path><ellipse cx="156.2583" cy="158.9002" rx="3.2079" ry="2.562" style="fill:#fff"></ellipse>          <ellipse cx="156.2583" cy="158.9002" rx="3.2079" ry="2.562" style="fill:#fff;opacity:0.17"></ellipse><path d="M160.1955,234.2986a25.4192,25.4192,0,0,0,4.059-4.1875,30.1271,30.1271,0,0,0-10.69,6.6405c2.5675-8.4582,9.0579-12.643,15.0636-14.7169q.5715-1.5519,1.0074-3.1573a32.2459,32.2459,0,0,0-7.6263,1.8417,14.4429,14.4429,0,0,1,8.7434-7.2467c.0377-.2557.0793-.5109.1132-.7668-4.3356-3.7178-.8-12.58-.8-12.58a16.1559,16.1559,0,0,0,1.2671,4.0123,18.5312,18.5312,0,0,0-.4752-3.68,13.03,13.03,0,0,0-4.4919-6.13,29.0655,29.0655,0,0,0,1.8283,4.2858,21.1489,21.1489,0,0,1-3.1963-5.2236,18.8951,18.8951,0,0,0-2.5195-1.2569c1.48,5.7623,3.2149,12.1914,4.0666,14.1419-1.6842-2.3162-2.7067-9.0848-7.3253-15.232a49.54,49.54,0,0,0-10.314-1.3861,37.132,37.132,0,0,1,10.6774,16.7753c-.4877-1.3731-7.2156-18.6531-34.5538-11.72a50.3486,50.3486,0,0,1,14.6624,1.5751c5.9857,1.6322,12.1631,4.8674,15.0084,11.23a17.9473,17.9473,0,0,1,1.2415,4,18.9428,18.9428,0,0,0-2.2657-.4462,23.8878,23.8878,0,0,0-12.4669,1.412,51.38,51.38,0,0,1,10.9037,1.0432,8.89,8.89,0,0,1,4.0214,1.8538,54.665,54.665,0,0,0-6.8407.6349,37.3459,37.3459,0,0,0-8.6119,2.2888,15.1643,15.1643,0,0,0-4.8337,3.0663s8.3127-.7795,11.6174-.7251c-.4941.26-7.2477,1.7742-7.7193,2.0726-5.9225,1.4855-12.56,3.8084-16.93,7.3406.2246-.1026,11.55-2.8168,17.4019-2.8906-.5839.7893-4.6552,1.5335-6.8787,2.5346a22.7519,22.7519,0,0,0-9.0145,7.6144c.3813.2121.7652.4217,1.1668.6165a25.3141,25.3141,0,0,1,9.622-2.2763,64.8026,64.8026,0,0,0-5.1682,3.9277,35.1936,35.1936,0,0,0,9.3761,1.18c8.8281,0,15.35-2.2531,20.1213-5.8643-.5419-.211-.8729-.3216-.8729-.3216h.0006l-.0008,0C159.1234,234.4725,159.66,234.3849,160.1955,234.2986Z" transform="translate(11.9999 -44.47)" style="fill:#e6ae81"></path><path d="M160.1955,234.2986a25.4192,25.4192,0,0,0,4.059-4.1875,30.1271,30.1271,0,0,0-10.69,6.6405c2.5675-8.4582,9.0579-12.643,15.0636-14.7169q.5715-1.5519,1.0074-3.1573a32.2459,32.2459,0,0,0-7.6263,1.8417,14.4429,14.4429,0,0,1,8.7434-7.2467c.0377-.2557.0793-.5109.1132-.7668-4.3356-3.7178-.8-12.58-.8-12.58a16.1559,16.1559,0,0,0,1.2671,4.0123,18.5312,18.5312,0,0,0-.4752-3.68,13.03,13.03,0,0,0-4.4919-6.13,29.0655,29.0655,0,0,0,1.8283,4.2858,21.1489,21.1489,0,0,1-3.1963-5.2236,18.8951,18.8951,0,0,0-2.5195-1.2569c1.48,5.7623,3.2149,12.1914,4.0666,14.1419-1.6842-2.3162-2.7067-9.0848-7.3253-15.232a49.54,49.54,0,0,0-10.314-1.3861,37.132,37.132,0,0,1,10.6774,16.7753c-.4877-1.3731-7.2156-18.6531-34.5538-11.72a50.3486,50.3486,0,0,1,14.6624,1.5751c5.9857,1.6322,12.1631,4.8674,15.0084,11.23a17.9473,17.9473,0,0,1,1.2415,4,18.9428,18.9428,0,0,0-2.2657-.4462,23.8878,23.8878,0,0,0-12.4669,1.412,51.38,51.38,0,0,1,10.9037,1.0432,8.89,8.89,0,0,1,4.0214,1.8538,54.665,54.665,0,0,0-6.8407.6349,37.3459,37.3459,0,0,0-8.6119,2.2888,15.1643,15.1643,0,0,0-4.8337,3.0663s8.3127-.7795,11.6174-.7251c-.4941.26-7.2477,1.7742-7.7193,2.0726-5.9225,1.4855-12.56,3.8084-16.93,7.3406.2246-.1026,11.55-2.8168,17.4019-2.8906-.5839.7893-4.6552,1.5335-6.8787,2.5346a22.7519,22.7519,0,0,0-9.0145,7.6144c.3813.2121.7652.4217,1.1668.6165a25.3141,25.3141,0,0,1,9.622-2.2763,64.8026,64.8026,0,0,0-5.1682,3.9277,35.1936,35.1936,0,0,0,9.3761,1.18c8.8281,0,15.35-2.2531,20.1213-5.8643-.5419-.211-.8729-.3216-.8729-.3216h.0006l-.0008,0C159.1234,234.4725,159.66,234.3849,160.1955,234.2986Z" transform="translate(11.9999 -44.47)" style="fill:#fff;opacity:0.17"></path><path d="M153.5646,236.7516a30.1271,30.1271,0,0,1,10.69-6.6405,30.4848,30.4848,0,0,0,4.3737-8.0764C162.6225,224.1086,156.1321,228.2934,153.5646,236.7516Z" transform="translate(11.9999 -44.47)" style="fill:#edbf97"></path><path d="M153.5646,236.7516a30.1271,30.1271,0,0,1,10.69-6.6405,30.4848,30.4848,0,0,0,4.3737-8.0764C162.6225,224.1086,156.1321,228.2934,153.5646,236.7516Z" transform="translate(11.9999 -44.47)" style="fill:#fff;opacity:0.17"></path><path d="M162.0093,220.7191a32.2459,32.2459,0,0,1,7.6263-1.8417,45.9306,45.9306,0,0,0,1.1171-5.405A14.4429,14.4429,0,0,0,162.0093,220.7191Z" transform="translate(11.9999 -44.47)" style="fill:#edbf97"></path><path d="M162.0093,220.7191a32.2459,32.2459,0,0,1,7.6263-1.8417,45.9306,45.9306,0,0,0,1.1171-5.405A14.4429,14.4429,0,0,0,162.0093,220.7191Z" transform="translate(11.9999 -44.47)" style="fill:#fff;opacity:0.17"></path><path d="M170.8659,212.7056a59.5243,59.5243,0,0,0,.4934-7.7872c0-.2683-.0168-.521-.0258-.781a16.1559,16.1559,0,0,1-1.2671-4.0123S166.53,208.9878,170.8659,212.7056Z" transform="translate(11.9999 -44.47)" style="fill:#edbf97"></path><path d="M170.8659,212.7056a59.5243,59.5243,0,0,0,.4934-7.7872c0-.2683-.0168-.521-.0258-.781a16.1559,16.1559,0,0,1-1.2671-4.0123S166.53,208.9878,170.8659,212.7056Z" transform="translate(11.9999 -44.47)" style="fill:#fff;opacity:0.17"></path><path d="M225.396,211.2956s.4053-.1191,1.1272-.25a11.8158,11.8158,0,0,1-.6261-1.6928Q225.6151,210.2847,225.396,211.2956Z" transform="translate(11.9999 -44.47)" style="fill:#c37e47"></path><path d="M225.396,211.2956s.4053-.1191,1.1272-.25a11.8158,11.8158,0,0,1-.6261-1.6928Q225.6151,210.2847,225.396,211.2956Z" transform="translate(11.9999 -44.47)" style="fill:#fff;opacity:0.17"></path><path d="M251.2264,237.734c.4617-.2345.9146-.4766,1.3487-.7343a24.7171,24.7171,0,0,0-2.8857-.785C250.2,236.7,250.7131,237.2084,251.2264,237.734Z" transform="translate(11.9999 -44.47)" style="fill:#c37e47"></path><path d="M251.2264,237.734c.4617-.2345.9146-.4766,1.3487-.7343a24.7171,24.7171,0,0,0-2.8857-.785C250.2,236.7,250.7131,237.2084,251.2264,237.734Z" transform="translate(11.9999 -44.47)" style="fill:#fff;opacity:0.17"></path><path d="M250.3476,208.2225c-.836,5.909-4.4783,9.8864-10.6523,10.076,10.832,3.486,15.9285,8.0771,17.8706,11.7594-.308-.1411-11.3029-5.175-18.0533-1.7164q.0721.0433.154.0963c1.8386-.226,8.5007-.4186,15.0026,7.14.04-.03.08-.0592.119-.0894,7.7165-7.652,9.0981-20.129,9.1426-29.5475a8.644,8.644,0,0,0-3.9683-3.9593c.3818,2.22,2.4352,5.7172,1.2641,11.9254,0,0-5.2031-9.0829-12.2345-14.5242A14.5335,14.5335,0,0,1,250.3476,208.2225Z" transform="translate(11.9999 -44.47)" style="fill:#c37e47"></path><path d="M250.3476,208.2225c-.836,5.909-4.4783,9.8864-10.6523,10.076,10.832,3.486,15.9285,8.0771,17.8706,11.7594-.308-.1411-11.3029-5.175-18.0533-1.7164q.0721.0433.154.0963c1.8386-.226,8.5007-.4186,15.0026,7.14.04-.03.08-.0592.119-.0894,7.7165-7.652,9.0981-20.129,9.1426-29.5475a8.644,8.644,0,0,0-3.9683-3.9593c.3818,2.22,2.4352,5.7172,1.2641,11.9254,0,0-5.2031-9.0829-12.2345-14.5242A14.5335,14.5335,0,0,1,250.3476,208.2225Z" transform="translate(11.9999 -44.47)" style="fill:#fff;opacity:0.17"></path><path d="M228.127,213.5619a8.6829,8.6829,0,0,0-3.88,1.8179s3.1671.2628,7.1866.9617A12.1622,12.1622,0,0,1,228.127,213.5619Z" transform="translate(11.9999 -44.47)" style="fill:#c37e47"></path><path d="M228.127,213.5619a8.6829,8.6829,0,0,0-3.88,1.8179s3.1671.2628,7.1866.9617A12.1622,12.1622,0,0,1,228.127,213.5619Z" transform="translate(11.9999 -44.47)" style="fill:#fff;opacity:0.17"></path><path d="M227.4481,189.655a9.6142,9.6142,0,0,0-1.1539,3.2794s11.6624-6.8306,26.4849,2.4607a34.5733,34.5733,0,0,0-9.7708.13c3.0545,1.0421,5.4253,2.8243,5.926,3.7391.021.0384.0372.08.0578.1186,7.0314,5.4413,12.2345,14.5242,12.2345,14.5242,1.1711-6.2082-.8823-9.7052-1.2641-11.9254a8.644,8.644,0,0,1,3.9683,3.9593c.0008-.1628.0034-.3295.0034-.49a12.4762,12.4762,0,0,0-4.4836-10.0317q-1.64-1.1067-3.3118-2.1628c-6.3969-3.2515-15.5-3.7124-22.47-3.7124C231.6669,189.5439,229.5659,189.5614,227.4481,189.655Z" transform="translate(11.9999 -44.47)" style="fill:#f5d0b0"></path><path d="M227.4481,189.655a9.6142,9.6142,0,0,0-1.1539,3.2794s11.6624-6.8306,26.4849,2.4607a34.5733,34.5733,0,0,0-9.7708.13c3.0545,1.0421,5.4253,2.8243,5.926,3.7391.021.0384.0372.08.0578.1186,7.0314,5.4413,12.2345,14.5242,12.2345,14.5242,1.1711-6.2082-.8823-9.7052-1.2641-11.9254a8.644,8.644,0,0,1,3.9683,3.9593c.0008-.1628.0034-.3295.0034-.49a12.4762,12.4762,0,0,0-4.4836-10.0317q-1.64-1.1067-3.3118-2.1628c-6.3969-3.2515-15.5-3.7124-22.47-3.7124C231.6669,189.5439,229.5659,189.5614,227.4481,189.655Z" transform="translate(11.9999 -44.47)" style="fill:#fff;opacity:0.17"></path><path d="M225.8971,209.3533a11.8158,11.8158,0,0,0,.6261,1.6928,22.718,22.718,0,0,1,12.6493,1.4367,50.8845,50.8845,0,0,0-11.0455,1.0791,12.1622,12.1622,0,0,0,3.307,2.78,62.8594,62.8594,0,0,1,8.2262,1.9451l.0351.0119c6.174-.19,9.8163-4.167,10.6523-10.076a14.5335,14.5335,0,0,0-1.3555-8.8394c-.0206-.0388-.0368-.08-.0578-.1186-.5007-.9148-2.8715-2.697-5.926-3.7391q-.5455.0859-1.1023.1939C235.6967,196.9316,228.6208,200.36,225.8971,209.3533Zm19.7584-5.9831c0,1.415-1.4362,2.562-3.2079,2.562s-3.2079-1.147-3.2079-2.562,1.4362-2.562,3.2079-2.562S245.6555,201.9553,245.6555,203.37Z" transform="translate(11.9999 -44.47)" style="fill:#2d2d2b"></path><path d="M225.8971,209.3533a11.8158,11.8158,0,0,0,.6261,1.6928,22.718,22.718,0,0,1,12.6493,1.4367,50.8845,50.8845,0,0,0-11.0455,1.0791,12.1622,12.1622,0,0,0,3.307,2.78,62.8594,62.8594,0,0,1,8.2262,1.9451l.0351.0119c6.174-.19,9.8163-4.167,10.6523-10.076a14.5335,14.5335,0,0,0-1.3555-8.8394c-.0206-.0388-.0368-.08-.0578-.1186-.5007-.9148-2.8715-2.697-5.926-3.7391q-.5455.0859-1.1023.1939C235.6967,196.9316,228.6208,200.36,225.8971,209.3533Zm19.7584-5.9831c0,1.415-1.4362,2.562-3.2079,2.562s-3.2079-1.147-3.2079-2.562,1.4362-2.562,3.2079-2.562S245.6555,201.9553,245.6555,203.37Z" transform="translate(11.9999 -44.47)" style="fill:#2d2d2b"></path><ellipse cx="254.4475" cy="158.9002" rx="3.2079" ry="2.562" style="fill:#fff"></ellipse>          <ellipse cx="254.4475" cy="158.9002" rx="3.2079" ry="2.562" style="fill:#fff;opacity:0.17"></ellipse><path d="M226.5126,239.4927c-3.6131-3.3514-8.8518-7.457-14.3475-9.2516A26.1073,26.1073,0,0,0,226.5126,239.4927Z" transform="translate(11.9999 -44.47)" style="fill:#e6ae81"></path><path d="M226.5126,239.4927c-3.6131-3.3514-8.8518-7.457-14.3475-9.2516A26.1073,26.1073,0,0,0,226.5126,239.4927Z" transform="translate(11.9999 -44.47)" style="fill:#fff;opacity:0.17"></path><path d="M221.2059,220.0115c-3.206,3.206-6.7564,1.6254-9.8131-.449-.3686.13-.7433.2787-1.1239.449,0,0,13.9384,3.4213,19.8481,20.2413a44.3612,44.3612,0,0,0,6.8859.5119,30.971,30.971,0,0,0,14.2235-3.0307c-.5133-.5256-1.0269-1.0338-1.537-1.5193a24.7171,24.7171,0,0,1,2.8857.785,22.5165,22.5165,0,0,0,2.0941-1.4216c-6.5019-7.5589-13.164-7.3663-15.0026-7.14q-.0817-.0531-.154-.0963c6.75-3.4586,17.7453,1.5753,18.0533,1.7164-1.9421-3.6823-7.0386-8.2734-17.8706-11.7594l-.0351-.0119a62.8594,62.8594,0,0,0-8.2262-1.9451c-4.0195-.6989-7.1866-.9617-7.1866-.9617a8.6829,8.6829,0,0,1,3.88-1.8179,50.8845,50.8845,0,0,1,11.0455-1.0791,22.718,22.718,0,0,0-12.6493-1.4367c-.7219.13-1.1272.25-1.1272.25q.2172-1.0127.5011-1.9423c2.7237-8.9931,9.8-12.4217,16.0089-13.634q.5565-.1087,1.1023-.1939a34.5733,34.5733,0,0,1,9.7708-.13c-14.8225-9.2913-26.4849-2.4607-26.4849-2.4607a9.6142,9.6142,0,0,1,1.1539-3.2794c-9.32.412-18.9587,2.319-21.9819,10.8027a19.0186,19.0186,0,0,0-.5011,4.4607c0,.2014.0054.4053.0072.6076,2.3023.4508,5.468-.0073,6.4518-5.401,0,0,2.8583,12.8185-5.4889,15.4992.0047.0243.0085.0486.0132.0729C209.3634,215.0789,216.5016,213.9517,221.2059,220.0115Z" transform="translate(11.9999 -44.47)" style="fill:#e6ae81"></path><path d="M221.2059,220.0115c-3.206,3.206-6.7564,1.6254-9.8131-.449-.3686.13-.7433.2787-1.1239.449,0,0,13.9384,3.4213,19.8481,20.2413a44.3612,44.3612,0,0,0,6.8859.5119,30.971,30.971,0,0,0,14.2235-3.0307c-.5133-.5256-1.0269-1.0338-1.537-1.5193a24.7171,24.7171,0,0,1,2.8857.785,22.5165,22.5165,0,0,0,2.0941-1.4216c-6.5019-7.5589-13.164-7.3663-15.0026-7.14q-.0817-.0531-.154-.0963c6.75-3.4586,17.7453,1.5753,18.0533,1.7164-1.9421-3.6823-7.0386-8.2734-17.8706-11.7594l-.0351-.0119a62.8594,62.8594,0,0,0-8.2262-1.9451c-4.0195-.6989-7.1866-.9617-7.1866-.9617a8.6829,8.6829,0,0,1,3.88-1.8179,50.8845,50.8845,0,0,1,11.0455-1.0791,22.718,22.718,0,0,0-12.6493-1.4367c-.7219.13-1.1272.25-1.1272.25q.2172-1.0127.5011-1.9423c2.7237-8.9931,9.8-12.4217,16.0089-13.634q.5565-.1087,1.1023-.1939a34.5733,34.5733,0,0,1,9.7708-.13c-14.8225-9.2913-26.4849-2.4607-26.4849-2.4607a9.6142,9.6142,0,0,1,1.1539-3.2794c-9.32.412-18.9587,2.319-21.9819,10.8027a19.0186,19.0186,0,0,0-.5011,4.4607c0,.2014.0054.4053.0072.6076,2.3023.4508,5.468-.0073,6.4518-5.401,0,0,2.8583,12.8185-5.4889,15.4992.0047.0243.0085.0486.0132.0729C209.3634,215.0789,216.5016,213.9517,221.2059,220.0115Z" transform="translate(11.9999 -44.47)" style="fill:#fff;opacity:0.17"></path><path d="M211.4241,200.125c-.9838,5.3937-4.15,5.8518-6.4518,5.401a56.1247,56.1247,0,0,0,.9629,10.0982C214.2824,212.9435,211.4241,200.125,211.4241,200.125Z" transform="translate(11.9999 -44.47)" style="fill:#edbf97"></path><path d="M211.4241,200.125c-.9838,5.3937-4.15,5.8518-6.4518,5.401a56.1247,56.1247,0,0,0,.9629,10.0982C214.2824,212.9435,211.4241,200.125,211.4241,200.125Z" transform="translate(11.9999 -44.47)" style="fill:#fff;opacity:0.17"></path><path d="M226.5126,239.4927a35.26,35.26,0,0,0,3.6044.76c-5.91-16.82-19.8481-20.2413-19.8481-20.2413.3806-.17.7553-.3186,1.1239-.449,3.0567,2.0744,6.6071,3.655,9.8131.449-4.7043-6.06-11.8425-4.9326-15.2575-4.3144a36.0793,36.0793,0,0,0,4.5925,12.2007,31.7182,31.7182,0,0,1,5.5415-1.0606,17.6231,17.6231,0,0,0-4.3531,2.8084c.1456.1984.2845.401.4358.5955C217.6608,232.0357,222.9,236.1413,226.5126,239.4927Z" transform="translate(11.9999 -44.47)" style="fill:#edbf97"></path><path d="M226.5126,239.4927a35.26,35.26,0,0,0,3.6044.76c-5.91-16.82-19.8481-20.2413-19.8481-20.2413.3806-.17.7553-.3186,1.1239-.449,3.0567,2.0744,6.6071,3.655,9.8131.449-4.7043-6.06-11.8425-4.9326-15.2575-4.3144a36.0793,36.0793,0,0,0,4.5925,12.2007,31.7182,31.7182,0,0,1,5.5415-1.0606,17.6231,17.6231,0,0,0-4.3531,2.8084c.1456.1984.2845.401.4358.5955C217.6608,232.0357,222.9,236.1413,226.5126,239.4927Z" transform="translate(11.9999 -44.47)" style="fill:#fff;opacity:0.17"></path><path d="M113.3814,218.0415a66.5946,66.5946,0,0,1-.9209-8.9929c-.0478-1.2372-.07-2.444-.07-3.5978a15.5648,15.5648,0,0,1,.16-2.1883c1.7632-12.5046,18.7617-13.7186,30.1051-13.7186,2.0118,0,4.1231.0178,6.251.1126a49.54,49.54,0,0,1,10.314,1.3861,25.4487,25.4487,0,0,1,3.2587,1.09,18.8951,18.8951,0,0,1,2.5195,1.2569,15.5588,15.5588,0,0,1,1.368.9378,13.03,13.03,0,0,1,4.4919,6.13c-2.8852-12.0155-17.8309-12.5664-29.52-12.5664-12.322,0-31.1412,1.3442-31.1412,15.907,0,10.1782,1.5436,24.1779,11.34,31.69-.0223-.022-.0429-.0452-.065-.0673C116.8458,230.7961,114.5121,224.4314,113.3814,218.0415Z" transform="translate(11.9999 -44.47)" style="fill:#9c8167"></path><path d="M205.4662,200.4577c3.0232-8.4837,12.6617-10.3907,21.9819-10.8027,2.1178-.0936,4.2188-.1111,6.2211-.1111,6.97,0,16.0727.4609,22.47,3.7124q-3.6951-2.3447-7.5133-4.46a87.061,87.061,0,0,0-13.6389-.9053C223.297,187.8913,208.3513,188.4422,205.4662,200.4577Z" transform="translate(11.9999 -44.47)" style="fill:#9c8167"></path><path d="M263.9342,205.4508c0,.1609-.0026.3276-.0034.49-.0445,9.4185-1.4261,21.8955-9.1426,29.5475,9.7959-7.5126,11.34-21.5123,11.34-31.69a14.11,14.11,0,0,0-.55-3.99q-2.9982-2.2783-6.1267-4.39A12.4762,12.4762,0,0,1,263.9342,205.4508Z" transform="translate(11.9999 -44.47)" style="fill:#9c8167"></path><path d="M204.97,204.92v.61a56.0409,56.0409,0,0,0,.97,10.09.22.22,0,0,0,.01.08,36.0335,36.0335,0,0,0,4.59,12.2,24.3284,24.3284,0,0,0-7.72,3.7,86.6029,86.6029,0,0,1-3.68-9.43c-2.04-5.11-3.18-12.28-6.76-15.43a6.1423,6.1423,0,0,0-4.22-1.6,6.2659,6.2659,0,0,0-2.35.44c-4.31,1.7-5.81,8.13-7.58,13.64q-.15.465-.3.9c-.24.71-.48,1.4-.75,2.05-.68,1.71-1.39,4.26-2.6,7.11-.23.53-.47,1.07-.73,1.61a32.7546,32.7546,0,0,1-1.65,3.05,38.9856,38.9856,0,0,0-7.2-.19q-.705.045-1.44.12c-1.08.1-2.19.24-3.36.43a25.8336,25.8336,0,0,0,4.05-4.19,30.4078,30.4078,0,0,0,4.38-8.08c.38-1.03.71-2.08,1.01-3.15a47.6028,47.6028,0,0,0,1.11-5.41c.04-.25.08-.51.12-.76a60.691,60.691,0,0,0,.49-7.79c0-.27-.02-.52-.03-.78a18.0331,18.0331,0,0,0-.47-3.68c-2.89-12.02-17.83-12.57-29.52-12.57-12.32,0-31.14,1.35-31.14,15.91,0,10.18,1.54,24.18,11.34,31.69.35.27.71.54,1.08.79.55.37,1.12.71,1.7,1.04.39.21.77.42,1.17.61a25.76,25.76,0,0,0,4.46,1.65,34.92,34.92,0,0,0,9.37,1.18c8.83,0,15.35-2.25,20.12-5.86.53.2,1.25.5,2.07.89a26.7037,26.7037,0,0,1-7.43,4.41,41.0291,41.0291,0,0,1-13.3,2.59,44.684,44.684,0,0,0,6.64-.24c-1.3.32-2.66.71-4.09,1.2,0,0,6.42-.09,10.68,3.12-.62.16-1.25.32-1.9.46a59.0269,59.0269,0,0,1-12.79,1.28,42.4168,42.4168,0,0,1-15.67-2.7,30.4342,30.4342,0,0,1-13.38-10.11c-5.24-6.88-7.21-15.03-8.28-20.47-.2-1.04-.38-1.98-.53-2.79-.05-.26-.09-.52-.14-.78-.13-.73-.25-1.5-.36-2.3-.19-1.31-.35-2.71-.5-4.14-.01-.09-.02-.19-.03-.27-.39-3.78-.66-7.8-.85-11.22-.02-.43-.05-.85-.07-1.25a9.9551,9.9551,0,0,1,2.57-7.18,36.3887,36.3887,0,0,0,3.65.19,42.0127,42.0127,0,0,0,13.53-2.49c1.08-.36,2.15-.74,3.21-1.13,2.95-1.06,5.88-2.19,8.95-3.11,12.42-.46,24.44.76,31.93,2.75,11.46,4.77,21.89,7.77,31.71,5.59.69-.13,1.49-.31,2.42-.54a.01.01,0,0,1,.01-.01h.02c1.74-.44,3.91-1.06,6.54-1.95q2.43-.81,5.4-1.96c1.93-.61,3.9-1.19,5.93-1.7,1.43-.32,2.99-.61,4.64-.86,1.98-.31,4.1-.58,6.34-.79.46-.05.92-.09,1.39-.13,1.67.61,3.34,1.27,5.01,1.95.73.3,1.47.6,2.2.91.02.01.05.02.07.03a148.354,148.354,0,0,1,13.6,6.65,87.3277,87.3277,0,0,0-13.64-.91c-11.69,0-26.64.55-29.52,12.57A18.6116,18.6116,0,0,0,204.97,204.92Z" transform="translate(11.9999 -44.47)" style="fill:#2d2d2b"></path><path d="M154.354,240.929c-.8873.3133-1.7894.5745-2.6979.8075a27.05,27.05,0,0,1,12.1916.8374,27.4376,27.4376,0,0,0,3.5816-2.8012,18.9969,18.9969,0,0,0-4.9674-3.5125c-.6208.5325-1.258,1.0457-1.9285,1.5138A25.8855,25.8855,0,0,1,154.354,240.929Z" transform="translate(11.9999 -44.47)" style="fill:#2d2d2b"></path><path d="M275.52,208.33c-.2,1.51-.41,2.94-.65,4.21-.71,3.67-1.75,9.98-4.67,16.31a32.4625,32.4625,0,0,1-13.66,15.24c-4.96,2.76-11.33,4.52-19.54,4.52-.54,0-1.07-.01-1.6-.02a5.8082,5.8082,0,0,0-4.48-3.88,5.6427,5.6427,0,0,1-1.14,3.52,48.68,48.68,0,0,1-4.93-.76,40.2011,40.2011,0,0,1-6.46-1.88,37.71,37.71,0,0,1,8.44.87c-2.96-2.69-7.88-4.93-13.07-6.49a23.4531,23.4531,0,0,1,2.32-5.39,11.6771,11.6771,0,0,0-5.69,4.49c-.95-.23-1.89-.43-2.82-.61-.3-.32-.59-.65-.87-.98a15.6765,15.6765,0,0,1,5.03-7.83c.14.19.28.4.44.59a26.1065,26.1065,0,0,0,14.34,9.25,34.83,34.83,0,0,0,3.61.76,43.4867,43.4867,0,0,0,6.88.51,30.9091,30.9091,0,0,0,14.23-3.03c.46-.23.91-.47,1.35-.73a22.5151,22.5151,0,0,0,2.09-1.42l.12-.09c9.79-7.51,11.34-21.51,11.34-31.69a14.25,14.25,0,0,0-.55-3.99q2.19,1.665,4.31,3.42C272.01,205.09,273.96,206.88,275.52,208.33Z" transform="translate(11.9999 -44.47)" style="fill:#2d2d2b"></path><path d="M140.778,242.7874a45.3928,45.3928,0,0,0,6.6443-.236,40.8153,40.8153,0,0,1,4.2338-.8149c.9085-.233,1.8106-.4942,2.6979-.8075a25.8855,25.8855,0,0,0,6.1794-3.155c.6705-.4681,1.3077-.9813,1.9285-1.5138-.3263-.1682-.6435-.3234-.9485-.4675a26.8637,26.8637,0,0,1-7.4331,4.4107A41.2,41.2,0,0,1,140.778,242.7874Z" transform="translate(11.9999 -44.47)" style="fill:#2d2d2b"></path><path d="M110.2845,316.2533c-.0051-.0219-.0092-.0429-.0144-.0647A.1175.1175,0,0,0,110.2845,316.2533Z" transform="translate(11.9999 -44.47)" style="fill:#fabf72"></path><path d="M206.6993,237.4846a17.8888,17.8888,0,0,0,.2618,9.4688,23.1361,23.1361,0,0,1,3.4277-7.8881c-.9467-.2267-1.8892-.43-2.82-.6068C207.2666,238.1368,206.978,237.8117,206.6993,237.4846Z" transform="translate(11.9999 -44.47)" style="fill:#edbf97"></path><path d="M212.747,174.6254q-2.5713-.64-5.1091-1.164C209.035,173.7992,210.7424,174.1741,212.747,174.6254Z" transform="translate(11.9999 -44.47)" style="fill:#f8ddc7"></path><path d="M285.0473,255.7469a19.1814,19.1814,0,0,1-3.7421-10.4341c-4.7627,8.6794,2.3633,37.29,2.3633,37.29-.6984-9.8085,2.91-10.6673,2.91-10.6673A61.3519,61.3519,0,0,0,289.3,296.0685c1.3608-4.3433,1.4569-20.7989,1.4569-20.7989a22.0078,22.0078,0,0,1,3.996,13.2564c5.0229-9.4947,2.5-31.4416,2.5-31.4416-2.5-25.0249-19.7665-33.0662-19.7665-33.0662C286.3391,232.0266,285.0473,255.7469,285.0473,255.7469Z" transform="translate(11.9999 -44.47)" style="fill:#edb586"></path><path d="M105.734,185.5894a41.9114,41.9114,0,0,0,13.5278-2.4918c1.0774-.3587,2.1459-.7375,3.2125-1.1247,2.9414-1.0678,5.8712-2.194,8.9473-3.1115a48.1779,48.1779,0,0,1,6.2771-1.4565c-31.6168-5.0508-18.119,2.6132-29.5028,3.0081-14.6788.5092-15.3522-3.5545-15.3522-3.5545,20.2125-1.65,15.2658-14.4394,15.2658-14.4394s23.7417,19.5122,29.0889,5.5611-8.4326-16.8972-8.4326-16.8972c30.7024,3.4225,22.1215,24.6044,22.1215,24.6044,7.9138-1.49,10.3049-16.4766,10.3049-16.4766,1.0695,18.8222,18.2492,12.4625,18.2492,12.4625,11.3074-5.7581,5.3321-24.7756,5.3321-24.7756,5.6581,4.3517,13.6451,23.8731,11.9873,37.7648a12.5494,12.5494,0,0,0-.0477,2.1341c.26-.0477.516-.0951.7664-.1411l.01-.0019.0175-.005c2.7784-.7,4.8087-2.1539,6.6859-3.1688,1.7269-.9336,3.3251-1.4959,5.2535-.7413h0c1.9376-.6126,3.9007-1.1922,5.9289-1.7019,1.5071-.3787,3.0529-.7161,4.6563-.9938a54.7176,54.7176,0,0,1,6.4485-.72c.4226-.0225.8358-.0544,1.2679-.0672-.06-.022-.12-.0461-.18-.0681l-.4928-.1654c-1.3083-.4389-4.29-1.4358-7.1833-2.3824-.5155-.1686-1.0262-.3349-1.5254-.4965-.062-.0183-.1243-.0379-.1863-.0561-.754-.2182-1.5078-.4331-2.2618-.6385q-.7653-.2117-1.53-.4075c-.5482-.144-1.0947-.28-1.6412-.4161-2.0046-.4513-3.712-.8262-5.1091-1.164-.64-.1317-1.28-.26-1.9154-.38a.6189.6189,0,0,0-.0481-.045l-.0963.0193c-.7283-.1412-1.4534-.2695-2.172-.3915-1.1916-8.0139-2.1008-12.0641-2.1309-12.1977-3.2647-11.5136-12.68-28.1453-39.8178-30.9791,0,0,22.95,15.5727,12.9471,30.8825a21.1729,21.1729,0,0,1-2.7762,3.3861,28.7673,28.7673,0,0,0-1.5417-3.7788c-3.1025-6.4477-11.3746-18.8928-29.0361-18.8928-23.8319,0-35.4289,11.54-35.4289,11.54s19.8494-1.4482,20.0667,8.29c.0012.0536.01.1027.01.157,0,0-.08-.0472-.2253-.1284-2.2927-1.2829-22.0562-11.723-39.3162-.6061,0,0,11.99-2.8415,13.4523,5.9005a11.2024,11.2024,0,0,1,.1472,1.8523c0,6.6544-9.72,6.0356-17.3767,4.5165a83.68,83.68,0,0,1-9.0768-2.3534,42.7166,42.7166,0,0,0,4.7306,4.4843c4.9148,4.0713,13.3753,9.5951,24.043,10.6661A36.5911,36.5911,0,0,0,105.734,185.5894Z" transform="translate(11.9999 -44.47)" style="fill:#fad4b4"></path><path d="M205.5781,173.0556l.0963-.0193a.6189.6189,0,0,1,.0481.045c.6359.12,1.275.2484,1.9154.38q2.535.5217,5.1091,1.164c.5465.1361,1.093.2721,1.6412.4161q.7651.1974,1.53.4075c.754.2054,1.5078.42,2.2618.6385.062.0182.1243.0378.1863.0561.5065.1491,1.0147.3,1.5206.4571q3.5948,1.0974,7.2123,2.41c.1563.0568.3124.12.4686.1777.06.022.12.0461.18.0681l.0015.0006c1.6718.6157,3.3422,1.2722,5.0109,1.9557.7344.3008,1.47.5928,2.2028.9068l.0645.0283a151.2058,151.2058,0,0,1,13.5979,6.6492q3.8147,2.11,7.5133,4.46,1.67,1.0594,3.3118,2.1628,3.1255,2.1095,6.1267,4.39,2.1921,1.6657,4.3086,3.4181c2.1224,1.864,4.0735,3.65,5.6319,5.1019,1.6777,1.5633,2.8953,2.7359,3.359,3.1854.1354.1312.2106.2047.2106.2047,2.3465.6556,3.07.0755,2.9661-1.0219-20.451-23.0763-51.4752-38.1943-78.44-41.4805l-.9741-4.2828.13-.7558c-.6963-.1091,1.15-1.3426.8441-1.8561a4.68,4.68,0,0,1-.3889-.8908c-1.12-.5034-1.9522-.9771-1.9522-.9771l.0028.0127c.03.1336.9393,4.1838,2.1309,12.1977C204.1247,172.7861,204.85,172.9144,205.5781,173.0556Z" transform="translate(11.9999 -44.47)" style="fill:#e53724"></path><path d="M255.62,284.49a21.0885,21.0885,0,0,1,13.3,13.14c1.54,4.61,1.83,10.74-.54,18.82,0,0-.57-8.86-8.27-11.43a38.8472,38.8472,0,0,1,3.34,19.53,30.77,30.77,0,0,1-1.41,6.62,12.836,12.836,0,0,0-1.53-5.37c-1.41-2.68-4.13-5.73-9.38-7.49.07.13,1.83,3.51,2.48,10.07a49.65,49.65,0,0,1,.24,4.96,19.3436,19.3436,0,0,0-2.16-4.32c-1.4-2.07-3.5-4.1-6.33-4.1v12.46s-.6-2.81-1.64-6.01c-1.37-4.23-3.51-9.14-6.06-9.14-3.61,0-1.84,7.79-1,10.85.2.74.35,1.21.35,1.21a18.9886,18.9886,0,0,1-2.83-.69c-.59-.19-1.25-.42-1.96-.71a26.639,26.639,0,0,1-15.74-17.48s-6.74,6.62.64,14c0,0-20.23-3.79-21.71-19.31a21.1088,21.1088,0,0,1,.25-5.59,22.17,22.17,0,0,0,3.33-1.41c1.14,3.13,3.3,7.53,6.96,10.03,0,0,.37-9.47,10.93-9.47,0,0,11.42.14,12.49,13.61,0,0,11.66-5.83,6.36-15.88,0,0,10.32-3.27,17.17,8.02,0,0,3.53-19.55-15.19-23.04,0,0-1.5-9.71,15.19-5.98,0,0-12.67-12.41-30.18-7.71a17.526,17.526,0,0,1,8.55-9.76s-17.32-5.59-24.05,4.17c-.01-.01-.02-.01-.02-.02,2-4.42,4.55-13.42-4.96-18.03,0,0,3.15,11.5-5.71,13.88,0,0,6.53-11.94-13.34-16.65.45.34,9.66,7.21,4.51,12.37,0,0-8.17-12.8-20.14-9.38,0,0,12.07,3.6,7.96,10.78-2.78,4.86-7.98,4.46-11.06,3.7a32.7413,32.7413,0,0,0-11.24-.88c-6.66.71-15.52,3.39-20.53,12.06,0,0,14.66-8.51,20.18-2.98,0,0-28.5,7.26-28.5,23.95,0,0,9.98-11.1,23.26-8.56,0,0-19,9.45-15.79,25.8,0,0,12.54-14.89,21.03-13.61,0,0,6.06,7.95,0,16.7,0,0,16.4-3.07,15.11-12.56,0,0,6.85,1.68,5.78,9.47l6.66-10.26a22.6719,22.6719,0,0,0,3.34,1.49,21.2091,21.2091,0,0,1,.32,5.69c-1.28,15.65-21.34,19.36-21.34,19.36,7.38-7.38.64-14,.64-14a26.96,26.96,0,0,1-8.98,13.54,27.2448,27.2448,0,0,1-8.56,4.6,19.4507,19.4507,0,0,1-2.99.74,11.2835,11.2835,0,0,0,.35-2.61c.02-1.66-.38-3.69-2.21-4.73a19.6408,19.6408,0,0,1-.83,3.42,28.1135,28.1135,0,0,1-3.57,7.01c0-8.11-3.53-7.37-3.53-7.37-3.71,0-5.12,3.79-5.66,6.5a17.6453,17.6453,0,0,0-.33,2.69,43.1825,43.1825,0,0,1-2.41-3.7c-4.4-7.57-3.02-11.32-3.02-11.32-4.77,2.32-3.82,5.55-3.82,5.55a33.7906,33.7906,0,0,1-4.02-11.03,11.3042,11.3042,0,0,1,.09-5,4.4633,4.4633,0,0,0-3.62,2.49c-1.82-7.73-1.37-13.65.17-18.16a21.5677,21.5677,0,0,1,13.8-13.54,22.6062,22.6062,0,0,0-16.04,6.42c3.85-20.54,22.45-26.86,22.45-26.86a51.9407,51.9407,0,0,1,13.61-4.42c-.13-.26-.26-.52-.4-.76-2.93-5.03-8.78-5.85-12.28-5.85a19.31,19.31,0,0,0-2.85.19c7.32-4.9,16.28-4.49,22.19-3.42a41.35,41.35,0,0,1,6.05,1.54h.01a1.1215,1.1215,0,0,0,.13.05c.11.04.18.07.18.07v-.01c-.02-.07-.05-.12-.07-.18a8.9183,8.9183,0,0,0-3.21-4.39c-4.26-3.21-10.68-3.12-10.68-3.12,1.43-.49,2.79-.88,4.09-1.2a40.1229,40.1229,0,0,1,4.24-.81,27.0557,27.0557,0,0,1,12.19.83,14.41,14.41,0,0,1,5.31,2.87c.68-2.17-.22-4.08-1.73-5.67a19.03,19.03,0,0,0-4.97-3.51c-.32-.17-.64-.32-.95-.47-.82-.39-1.54-.69-2.07-.89-.54-.21-.87-.32-.87-.32.55-.11,1.09-.19,1.62-.28h.01c1.17-.19,2.28-.33,3.36-.43q.735-.075,1.44-.12a38.9856,38.9856,0,0,1,7.2.19c12.13,1.52,16.33,8.84,16.33,8.84a12.8141,12.8141,0,0,0-2.29-14.43c9.21,2.24,7.66,17,7.66,17a22.9145,22.9145,0,0,1,8.92-13.75,24.3284,24.3284,0,0,1,7.72-3.7,32.2421,32.2421,0,0,1,5.54-1.06,17.4794,17.4794,0,0,0-4.35,2.81,15.6765,15.6765,0,0,0-5.03,7.83,17.8875,17.8875,0,0,0,.26,9.47,23.1155,23.1155,0,0,1,3.43-7.88,11.6771,11.6771,0,0,1,5.69-4.49,23.4531,23.4531,0,0,0-2.32,5.39c-1.04,3.66-1.33,8.46,2.32,12.12,0,0,6.1.45,10.48-1.47a7.7913,7.7913,0,0,0,3.22-2.39,5.6427,5.6427,0,0,0,1.14-3.52,5.8082,5.8082,0,0,1,4.48,3.88c.03.09.07.18.1.28a.06.06,0,0,1,.01.04c.06.18.11.36.16.55a.1268.1268,0,0,0,.01.06c.04.19.08.39.11.59a.22.22,0,0,1,.01.08,6.1728,6.1728,0,0,1,.08.62.34.34,0,0,1,.01.1c.02.21.03.43.04.66,0,.04-.01.08-.01.12.01.23.01.46,0,.71,0,.04-.01.08-.01.12-.01.25-.03.5-.05.76a.7844.7844,0,0,1-.02.14,8.1274,8.1274,0,0,1-.1.81.59.59,0,0,1-.02.14c-.05.29-.09.58-.15.88-.01.04-.03.1-.04.14-.06.31-.13.62-.21.94a.8331.8331,0,0,1-.04.15c-.08.33-.17.66-.27,1.01-.01.04-.03.08-.04.12-.11.37-.22.73-.35,1.12-.01.03-.03.07-.04.1-.1.31-.22.62-.33.94v.01a1.1215,1.1215,0,0,0-.05.13c.02-.04.03-.08.05-.12v-.01c.13-.29.34-.76.66-1.34.06-.11.13-.23.2-.35.01-.01.01-.03.02-.04.06-.11.13-.22.2-.33a.2177.2177,0,0,1,.05-.08c.06-.11.13-.21.19-.32a.607.607,0,0,0,.07-.1c.07-.1.14-.21.21-.31a.8342.8342,0,0,1,.08-.12c.07-.1.14-.2.21-.31a1.71,1.71,0,0,0,.11-.14c.07-.1.14-.19.22-.29.04-.05.08-.11.12-.16.08-.1.15-.19.23-.29.05-.05.09-.11.14-.17l.24-.27c.05-.06.1-.12.16-.18l.24-.27c.06-.06.12-.13.18-.19l.26-.26c.07-.06.13-.13.2-.19a2.16,2.16,0,0,1,.27-.25c.07-.07.14-.13.21-.19.09-.09.19-.17.28-.25.08-.06.15-.13.23-.19l.3-.24.24-.18c.11-.08.21-.15.32-.23.09-.06.17-.12.26-.17.11-.08.22-.15.33-.22.09-.06.18-.12.27-.17l.36-.21c.09-.05.18-.1.28-.15.12-.07.25-.13.37-.2.1-.05.2-.1.3-.14.13-.06.26-.12.4-.18a2.88,2.88,0,0,1,.31-.13c.13-.06.27-.11.42-.17.1-.03.21-.08.31-.11l.45-.15c.11-.03.22-.07.33-.1.15-.04.32-.08.48-.12.11-.03.21-.06.32-.09.18-.04.36-.07.53-.1.11-.02.21-.04.32-.06.19-.04.4-.06.6-.09.09-.01.18-.03.28-.04.24-.02.48-.04.73-.06.06,0,.12-.01.18-.01q.48-.03.96-.03s-5.33,4.55-2.3,10.67a12.0575,12.0575,0,0,0,1.4,2.18,13.6759,13.6759,0,0,0,1.23,1.35v.01a49.0289,49.0289,0,0,1,22.45,26.86A22.6062,22.6062,0,0,0,255.62,284.49Z" transform="translate(11.9999 -44.47)" style="fill:#fad4b4"></path><path d="M252.9,309.41c-6.85-11.29-17.17-8.02-17.17-8.02,5.3,10.05-6.36,15.88-6.36,15.88-1.07-13.47-12.49-13.61-12.49-13.61-10.56,0-10.93,9.47-10.93,9.47-3.66-2.5-5.82-6.9-6.96-10.03,7.9-4.1,13.46-12.96,12.27-26.47-.4-4.6-1.95-7.61-4.04-9.54,6.73-9.76,24.05-4.17,24.05-4.17a17.526,17.526,0,0,0-8.55,9.76c17.51-4.7,30.18,7.71,30.18,7.71-16.69-3.73-15.19,5.98-15.19,5.98C256.43,289.86,252.9,309.41,252.9,309.41Z" transform="translate(11.9999 -44.47)" style="fill:#f8ddc7"></path><path d="M207.2,267.07c-6.24-5.72-17.27-1.91-17.27-1.91s-19.73-6.82-21.34,11.47c-1.16,13.25,4.17,22.04,11.83,26.24l-6.66,10.26c1.07-7.79-5.78-9.47-5.78-9.47,1.29,9.49-15.11,12.56-15.11,12.56,6.06-8.75,0-16.7,0-16.7-8.49-1.28-21.03,13.61-21.03,13.61-3.21-16.35,15.79-25.8,15.79-25.8-13.28-2.54-23.26,8.56-23.26,8.56,0-16.69,28.5-23.95,28.5-23.95-5.52-5.53-20.18,2.98-20.18,2.98,5.01-8.67,13.87-11.35,20.53-12.06a32.7413,32.7413,0,0,1,11.24.88c3.08.76,8.28,1.16,11.06-3.7,4.11-7.18-7.96-10.78-7.96-10.78,11.97-3.42,20.14,9.38,20.14,9.38,5.15-5.16-4.06-12.03-4.51-12.37,19.87,4.71,13.34,16.65,13.34,16.65,8.86-2.38,5.71-13.88,5.71-13.88C211.75,253.65,209.2,262.65,207.2,267.07Z" transform="translate(11.9999 -44.47)" style="fill:#f8ddc7"></path><path d="M211.26,276.63c-.4-4.6-1.95-7.61-4.04-9.54-.01-.01-.02-.01-.02-.02-6.24-5.72-17.27-1.91-17.27-1.91s-19.73-6.82-21.34,11.47c-1.16,13.25,4.17,22.04,11.83,26.24a22.6719,22.6719,0,0,0,3.34,1.49,24.2324,24.2324,0,0,0,6.17,1.31,24.5948,24.5948,0,0,0,5.73-1.16,22.17,22.17,0,0,0,3.33-1.41C206.89,299,212.45,290.14,211.26,276.63Zm-21.33-7.13c-9.11-.33-16.23,5.52-15.1.17.5-2.36,3.41-3.51,8.9-3.51a45.8033,45.8033,0,0,1,5.62.37l.58.08.58-.08a45.5933,45.5933,0,0,1,5.62-.37c5.49,0,8.4,1.15,8.9,3.51C206.15,275,199.08,269.17,189.93,269.5Z" transform="translate(11.9999 -44.47)" style="fill:#2d2d2b"></path><path d="M189.93,269.5c-9.11-.33-16.23,5.52-15.1.17.5-2.36,3.41-3.51,8.9-3.51a45.8033,45.8033,0,0,1,5.62.37l.58.08.58-.08a45.5933,45.5933,0,0,1,5.62-.37c5.49,0,8.4,1.15,8.9,3.51C206.15,275,199.08,269.17,189.93,269.5Z" transform="translate(11.9999 -44.47)" style="fill:#fff"></path>          <path d="M194.45,283.6352" transform="translate(11.9999 -44.47)" style="fill:#111110"></path><path d="M208.4059,286.6832" transform="translate(11.9999 -44.47)" style="fill:#2d2d2b"></path><path d="M163.3456,181.6114l.0051.0021c11.4584,4.7638,21.8854,7.762,31.7079,5.5912.5531-.1223,1.1052-.2523,1.6545-.408h0a12.5494,12.5494,0,0,1,.0477-2.1341c1.6578-13.8917-6.3292-33.4131-11.9873-37.7648,0,0,5.9753,19.0175-5.3321,24.7756,0,0-17.18,6.36-18.2492-12.4625,0,0-2.3911,14.9866-10.3049,16.4766,0,0,8.5809-21.1819-22.1215-24.6044,0,0,13.78,2.9462,8.4326,16.8972s-29.0889-5.5611-29.0889-5.5611,4.9467,12.7893-15.2658,14.4394c0,0,.6734,4.0637,15.3522,3.5545,11.3838-.3949-2.114-8.0589,29.5028-3.0081,3.0139.4815,6.428,1.0757,10.3225,1.8056C148.0212,179.2105,157.282,179.09,163.3456,181.6114Z" transform="translate(11.9999 -44.47)" style="fill:#f8ddc7"></path></g></g></svg>